<svg width="555" height="157" viewBox="0 0 555 157" fill="none" xmlns="http://www.w3.org/2000/svg">
<path d="M38 53L113 4" stroke="#0E6EB8" stroke-width="8" stroke-linecap="round"/>
<path d="M38 53V149" stroke="#0E6EB8" stroke-width="8" stroke-linecap="round"/>
<path d="M38 84L4 105" stroke="#0E6EB8" stroke-width="8" stroke-linecap="round"/>
<path d="M4 149L4 105" stroke="#0E6EB8" stroke-width="8" stroke-linecap="round"/>
<path d="M4 149H38" stroke="#0E6EB8" stroke-width="8" stroke-linecap="round"/>
<path d="M38 84L70 107" stroke="#0E6EB8" stroke-width="8" stroke-linecap="round"/>
<path d="M70 149L70 107" stroke="#0E6EB8" stroke-width="8" stroke-linecap="round"/>
<path d="M70 149H86" stroke="#0E6EB8" stroke-width="8" stroke-linecap="round"/>
<path d="M86 96V149" stroke="#0E6EB8" stroke-width="8" stroke-linecap="round"/>
<path d="M86 96L113 73" stroke="#0E6EB8" stroke-width="8" stroke-linecap="round"/>
<path d="M159 73L113 73" stroke="#0E6EB8" stroke-width="8" stroke-linecap="round"/>
<path d="M159 73V101" stroke="#0E6EB8" stroke-width="8" stroke-linecap="round"/>
<path d="M115 101L159 101" stroke="#0E6EB8" stroke-width="8" stroke-linecap="round"/>
<path d="M115 101L157 149" stroke="#0E6EB8" stroke-width="8" stroke-linecap="round"/>
<path d="M115 149L113 4.00005" stroke="#0E6EB8" stroke-width="8" stroke-linecap="round"/>
<path d="M195.085 56.245H224.335V59.575H195.085V56.245ZM197.695 68.35H221.32V71.5H197.695V68.35ZM195.715 74.425H223.345V77.845H195.715V74.425ZM207.055 47.38H211.195V82.12H207.055V47.38ZM198.235 50.35H220.915V65.605H197.965V62.275H216.775V53.635H198.235V50.35ZM182.665 49.72H192.295V53.5H182.665V49.72ZM190.81 49.72H191.35L192.025 49.54L194.905 50.395C192.88 55.39 189.595 62.365 186.895 67.855L183.07 66.82C185.815 61.42 189.19 54.085 190.81 50.215V49.72ZM186.985 62.5H194.005V66.28H186.67L186.985 62.5ZM192.295 62.5H193.105L193.87 62.41L196.345 62.995C195.085 76.315 191.35 84.64 185.5 88.915C184.87 88.105 183.205 86.575 182.305 86.035C187.93 82.165 191.26 74.875 192.295 63.31V62.5ZM187.165 69.43C190.81 81.535 199.135 83.56 210.205 83.605C212.455 83.605 221.95 83.605 224.74 83.515C224.065 84.46 223.3 86.44 223.03 87.655H210.115C197.065 87.655 188.29 84.955 183.835 70.645L187.165 69.43ZM249.67 47.02L253.54 47.785C251.875 55.21 248.905 62.185 245.17 66.685C244.495 66.01 242.83 64.795 241.93 64.255C245.62 60.25 248.23 53.77 249.67 47.02ZM265.015 54.355H269.065C269.065 54.355 269.02 55.84 268.975 56.38C268.03 76.765 267.13 83.965 265.375 86.215C264.385 87.565 263.485 88.015 262.045 88.24C260.83 88.42 258.895 88.42 256.915 88.285C256.825 87.07 256.42 85.27 255.745 84.1C257.59 84.28 259.3 84.325 260.155 84.325C260.875 84.325 261.28 84.145 261.82 83.515C263.215 81.895 264.16 74.785 265.015 55.3V54.355ZM250.075 54.355H266.77V58.315H248.185L250.075 54.355ZM254.035 55.615L257.185 57.19C255.295 65.065 251.155 74.02 246.16 78.52C245.305 77.71 243.955 76.72 242.83 76.09C248.095 71.95 252.235 63.355 254.035 55.615ZM260.38 55.975L263.755 57.55C261.505 69.475 256.6 81.805 249.085 87.925C248.275 87.07 246.745 85.99 245.575 85.405C253.405 79.78 258.265 67.765 260.38 55.975ZM227.395 71.815C231.715 70.78 238.195 68.89 244.36 67.09L244.9 70.825C239.23 72.625 233.11 74.515 228.475 75.91L227.395 71.815ZM235.675 47.065H239.59V88.78H235.675V47.065ZM229.915 49.63L233.56 50.215C232.93 56.2 231.805 62.365 230.14 66.37C229.51 65.875 227.89 64.885 227.035 64.48C228.61 60.745 229.465 55.075 229.915 49.63ZM230.635 56.02H243.865V60.115H229.87L230.635 56.02ZM291.16 47.02H295.48V84.415C295.48 86.755 294.85 87.7 293.32 88.33C291.745 88.87 289.36 88.915 285.58 88.915C285.355 87.925 284.68 86.395 284.14 85.495C286.57 85.585 289.27 85.54 290.035 85.54C290.89 85.495 291.16 85.225 291.16 84.415V47.02ZM273.88 50.35H313.165V53.77H273.88V50.35ZM282.61 58.9V61.645H304.345V58.9H282.61ZM278.56 56.065H308.71V64.48H278.56V56.065ZM277.345 67.135H309.43V84.055H305.11V70.15H277.345V67.135ZM272.935 72.76H314.11V76.045H272.935V72.76ZM276.94 78.88H307.405V82.075H276.94V78.88ZM329.86 49.18H346.06V52.96H329.86V49.18ZM334.315 58.675H342.505V62.41H333.145L334.315 58.675ZM331.66 69.835L333.46 66.64C335.665 68.08 338.32 70.195 339.535 71.59L337.645 75.19C336.43 73.66 333.82 71.41 331.66 69.835ZM346.06 52.195H349.885V78.34H346.06V52.195ZM354.025 47.83H357.985V83.74C357.985 86.215 357.445 87.34 356.005 88.015C354.52 88.735 352.18 88.825 348.625 88.825C348.445 87.745 347.86 85.855 347.275 84.685C349.885 84.775 352.225 84.775 353.035 84.73C353.755 84.685 354.025 84.505 354.025 83.74V47.83ZM333.775 50.53L337.87 51.07C336.61 59.08 334.315 68.71 329.365 74.47C328.78 73.615 327.61 72.22 326.8 71.5C331.12 66.325 333.01 57.415 333.775 50.53ZM340.93 58.675H341.695L342.37 58.54L344.845 59.305C343.135 73.975 338.275 83.875 331.345 88.87C330.76 87.88 329.455 86.26 328.6 85.63C335.17 81.13 339.535 72.355 340.93 59.53V58.675ZM325.99 47.155L329.95 48.325C327.385 56.11 323.29 64.255 318.79 69.52C318.43 68.53 317.35 66.145 316.675 65.065C320.455 60.655 323.92 53.905 325.99 47.155ZM322.39 58.81L326.215 54.985L326.305 55.075V88.78H322.39V58.81ZM385.165 56.65H396.955V59.845H385.165V56.65ZM384.85 63.58H397.45V66.82H384.85V63.58ZM389.305 53.185H392.68V65.47H389.305V53.185ZM381.43 48.82H400.645V52.465H381.43V48.82ZM387.055 69.745H396.775V81.535H387.055V78.385H393.625V72.895H387.055V69.745ZM385.345 69.745H388.45V83.245H385.345V69.745ZM399.115 48.82H403.03V83.785C403.03 86.035 402.625 87.295 401.23 88.015C399.88 88.69 397.63 88.78 394.345 88.78C394.165 87.655 393.67 85.72 393.085 84.595C395.335 84.685 397.54 84.64 398.26 84.64C398.89 84.64 399.115 84.46 399.115 83.74V48.82ZM379.315 48.82H383.185V65.29C383.185 72.355 382.69 82.48 379.045 89.05C378.325 88.375 376.615 87.16 375.715 86.755C379.09 80.635 379.315 71.86 379.315 65.29V48.82ZM364.375 60.745H376.12V64.03H364.375V60.745ZM364.69 48.55H376.03V51.835H364.69V48.55ZM364.375 66.82H376.12V70.105H364.375V66.82ZM362.53 54.49H377.29V57.955H362.53V54.49ZM366.355 72.94H376.075V86.26H366.355V82.84H372.61V76.36H366.355V72.94ZM364.285 72.94H367.705V88.285H364.285V72.94ZM408.25 84.145H448.795V87.925H408.25V84.145ZM417.835 72.715H439.12V75.73H417.835V72.715ZM417.835 78.385H439.12V81.445H417.835V78.385ZM415.765 66.595H441.28V86.215H436.915V70.105H419.95V86.395H415.765V66.595ZM408.475 52.465H448.57V56.155H408.475V52.465ZM426.205 47.02H430.435V65.245H426.205V47.02ZM424.045 53.635L427.51 54.985C423.55 60.88 416.71 66.055 410.05 68.665C409.42 67.72 408.25 66.19 407.35 65.38C413.785 63.22 420.58 58.54 424.045 53.635ZM432.46 53.68C435.97 58.495 442.9 62.95 449.56 64.975C448.615 65.785 447.4 67.36 446.77 68.44C439.975 65.92 433.09 60.79 429.085 55.03L432.46 53.68ZM460.045 77.53H483.715V80.635H460.045V77.53ZM453.43 70.51H493.615V73.885H453.43V70.51ZM467.155 67.36L471.34 68.035C468.55 73.66 463.42 78.34 454.69 81.445C454.195 80.5 453.07 79.06 452.215 78.43C460.405 75.91 465.13 71.725 467.155 67.36ZM482.185 71.59C484.75 74.605 489.97 77.35 494.92 78.52C494.02 79.33 492.805 80.905 492.22 81.94C487.09 80.275 481.825 76.765 478.855 72.85L482.185 71.59ZM482.23 77.53H486.28C486.28 77.53 486.235 78.52 486.19 79.06C485.695 84.1 485.155 86.395 484.165 87.43C483.355 88.195 482.455 88.42 481.15 88.51C480.07 88.6 477.955 88.6 475.75 88.555C475.66 87.475 475.255 86.035 474.715 85.135C476.695 85.315 478.585 85.36 479.395 85.36C480.07 85.36 480.475 85.27 480.835 84.955C481.465 84.37 481.87 82.525 482.23 78.025V77.53ZM470.395 74.65H474.49C473.41 82.255 470.575 86.755 459.145 89.005C458.785 88.015 457.795 86.53 457.075 85.765C467.38 84.01 469.54 80.59 470.395 74.65ZM454.015 49.765H492.985V53.23H454.015V49.765ZM463.87 47.02H467.965V55.21H463.87V47.02ZM478.81 47.02H482.995V55.21H478.81V47.02ZM462.61 63.355V65.74H484.435V63.355H462.61ZM462.61 58.45V60.835H484.435V58.45H462.61ZM458.515 55.84H488.71V68.35H458.515V55.84ZM498.295 74.65H538.705V78.115H498.295V74.65ZM506.305 58.045H533.89V60.925H506.305V58.045ZM506.305 63.445H534.025V66.37H506.305V63.445ZM505.54 52.15H535.915V55.57H505.54V52.15ZM517.285 54.22H521.38V70.195H517.285V54.22ZM516.25 71.32H520.48V88.78H516.25V71.32ZM515.665 76L518.905 77.62C514.36 82.255 506.485 86.395 499.78 88.42C499.15 87.34 497.935 85.765 496.99 84.865C503.74 83.29 511.615 79.78 515.665 76ZM521.2 75.91C525.16 79.645 532.945 83.065 539.695 84.64C538.795 85.495 537.58 87.07 536.995 88.105C530.245 86.17 522.46 82.12 517.915 77.575L521.2 75.91ZM519.445 47.02L524.215 47.65C522.91 50.17 521.38 52.69 520.21 54.4L516.43 53.635C517.555 51.79 518.815 49 519.445 47.02ZM507.79 46.93L512.2 47.785C509.41 52.87 505.54 58.225 500.095 62.68C499.42 61.735 497.98 60.43 497.035 59.845C502.075 56.02 505.765 50.98 507.79 46.93ZM503.605 54.4H507.655V68.98H537.49V72.265H503.605V54.4Z" fill="#00C0DD"/>
<path d="M205.959 143.55C203.959 143.55 202.343 143.383 201.109 143.05C199.909 142.717 198.976 142.317 198.309 141.85C197.643 141.417 197.126 141.067 196.759 140.8C196.359 140.433 196.159 140.2 196.159 140.1C196.159 140.067 196.193 140.05 196.259 140.05C196.393 140.05 196.543 140.083 196.709 140.15C196.909 140.183 197.059 140.233 197.159 140.3C198.326 140.7 199.326 140.917 200.159 140.95C201.026 140.95 201.909 140.95 202.809 140.95C203.909 140.95 205.243 140.85 206.809 140.65C208.376 140.45 210.009 140.117 211.709 139.65C213.443 139.183 215.043 138.533 216.509 137.7C218.476 136.6 219.976 135.3 221.009 133.8C222.076 132.3 222.609 130.867 222.609 129.5C222.609 128.033 221.959 126.783 220.659 125.75C219.359 124.717 217.309 124.2 214.509 124.2C214.243 124.2 213.959 124.2 213.659 124.2C213.359 124.2 213.043 124.217 212.709 124.25C211.376 124.35 209.943 124.6 208.409 125C206.909 125.367 205.543 125.85 204.309 126.45C203.109 127.017 202.259 127.667 201.759 128.4C200.926 129.6 200.243 130.667 199.709 131.6C199.176 132.5 198.709 133.35 198.309 134.15C197.909 134.95 197.459 135.8 196.959 136.7C196.793 137.167 196.509 137.4 196.109 137.4C195.909 137.4 195.809 137.267 195.809 137C195.809 136.833 195.826 136.7 195.859 136.6C196.059 135.833 196.526 134.767 197.259 133.4C198.026 132.033 198.959 130.5 200.059 128.8C201.159 127.1 202.309 125.4 203.509 123.7C204.743 122 205.909 120.433 207.009 119C208.109 117.567 209.043 116.417 209.809 115.55C210.576 114.65 211.059 114.2 211.259 114.2C211.459 114.2 211.626 114.3 211.759 114.5C211.893 114.7 211.943 114.883 211.909 115.05C211.909 115.05 211.693 115.317 211.259 115.85C210.826 116.383 210.276 117.067 209.609 117.9C208.976 118.733 208.293 119.6 207.559 120.5C206.859 121.4 206.226 122.217 205.659 122.95C205.093 123.65 204.676 124.167 204.409 124.5C207.376 124 210.343 123.4 213.309 122.7C216.309 122 219.159 120.95 221.859 119.55C223.526 118.683 224.826 117.75 225.759 116.75C226.726 115.717 227.209 114.783 227.209 113.95C227.209 113.083 226.659 112.367 225.559 111.8C224.459 111.2 222.676 110.9 220.209 110.9C219.209 110.9 217.976 111.017 216.509 111.25C215.043 111.483 213.459 111.8 211.759 112.2C210.093 112.6 208.426 113.083 206.759 113.65C205.126 114.183 203.626 114.767 202.259 115.4C200.926 116.033 199.859 116.683 199.059 117.35C198.493 117.783 198.309 118.167 198.509 118.5C198.576 118.6 198.609 118.7 198.609 118.8C198.609 118.867 198.559 118.9 198.459 118.9C198.359 118.867 198.259 118.817 198.159 118.75C197.626 118.417 197.226 117.983 196.959 117.45C196.693 116.917 196.559 116.433 196.559 116C196.559 115.833 196.576 115.683 196.609 115.55C196.676 115.417 196.726 115.3 196.759 115.2C197.393 114.267 198.409 113.4 199.809 112.6C201.209 111.8 202.793 111.083 204.559 110.45C206.359 109.783 208.193 109.217 210.059 108.75C211.926 108.25 213.659 107.883 215.259 107.65C216.859 107.383 218.159 107.25 219.159 107.25C222.659 107.25 225.343 107.733 227.209 108.7C229.109 109.633 230.059 110.833 230.059 112.3C230.059 113.5 229.409 114.8 228.109 116.2C226.809 117.6 224.793 118.983 222.059 120.35C220.726 121.05 219.293 121.65 217.759 122.15C216.226 122.65 214.693 123.083 213.159 123.45C213.793 123.383 214.393 123.333 214.959 123.3C215.559 123.267 216.126 123.25 216.659 123.25C220.359 123.25 223.043 123.867 224.709 125.1C226.376 126.3 227.209 127.783 227.209 129.55C227.209 130.817 226.809 132.167 226.009 133.6C225.209 135 224.076 136.367 222.609 137.7C221.176 139 219.443 140.15 217.409 141.15C215.976 141.85 214.526 142.367 213.059 142.7C211.593 143.033 210.243 143.25 209.009 143.35C207.776 143.483 206.759 143.55 205.959 143.55ZM246.938 142.95C246.505 142.783 246.072 142.483 245.638 142.05C245.238 141.617 245.038 140.867 245.038 139.8C245.038 138.9 245.188 137.967 245.488 137C245.788 136 246.172 135.017 246.638 134.05C245.772 135.15 244.822 136.233 243.788 137.3C242.788 138.367 241.772 139.25 240.738 139.95C239.738 140.617 238.805 140.95 237.938 140.95C237.205 140.95 236.588 140.75 236.088 140.35C235.622 139.95 235.388 139.333 235.388 138.5C235.388 137.9 235.505 137.25 235.738 136.55C235.972 135.85 236.388 135.067 236.988 134.2C237.588 133.333 238.238 132.483 238.938 131.65C239.672 130.783 240.305 130.05 240.838 129.45C241.205 129.017 241.388 128.667 241.388 128.4C241.388 128.067 241.205 127.9 240.838 127.9C240.438 127.9 239.872 128.167 239.138 128.7C238.372 129.267 237.555 129.967 236.688 130.8C235.822 131.6 235.005 132.383 234.238 133.15C233.472 133.883 232.822 134.467 232.288 134.9C232.188 135 232.088 135.05 231.988 135.05C231.822 135.05 231.738 134.95 231.738 134.75C231.738 134.583 231.888 134.367 232.188 134.1C233.655 132.833 234.872 131.683 235.838 130.65C236.805 129.583 237.755 128.683 238.688 127.95C239.188 127.55 239.705 127.267 240.238 127.1C240.772 126.9 241.272 126.8 241.738 126.8C242.538 126.8 243.205 127.033 243.738 127.5C244.272 127.967 244.538 128.617 244.538 129.45C244.538 130.083 244.372 130.75 244.038 131.45C243.672 132.283 243.172 133.117 242.538 133.95C241.938 134.75 241.355 135.533 240.788 136.3C240.355 136.933 240.038 137.45 239.838 137.85C239.638 138.25 239.538 138.55 239.538 138.75C239.538 139.017 239.672 139.15 239.938 139.15C240.205 139.15 240.588 139 241.088 138.7C241.588 138.4 242.105 138.017 242.638 137.55C243.005 137.217 243.322 136.917 243.588 136.65C243.888 136.35 244.105 136.133 244.238 136C245.005 135.2 245.772 134.35 246.538 133.45C247.305 132.517 247.972 131.667 248.538 130.9C248.972 130.333 249.305 129.9 249.538 129.6C249.805 129.3 250.088 128.983 250.388 128.65C250.955 128.017 251.555 127.683 252.188 127.65C252.555 127.65 252.972 127.733 253.438 127.9C253.938 128.033 254.422 128.317 254.888 128.75C254.555 129.217 254.055 129.867 253.388 130.7C252.755 131.5 252.055 132.4 251.288 133.4C250.555 134.367 249.838 135.367 249.138 136.4C248.472 137.433 247.922 138.4 247.488 139.3C247.055 140.2 246.838 140.983 246.838 141.65C246.838 142.117 246.972 142.483 247.238 142.75C247.372 142.883 247.372 142.95 247.238 142.95C247.105 142.983 247.005 142.983 246.938 142.95ZM271.088 125.7C270.621 125.7 270.271 125.55 270.038 125.25C269.804 124.95 269.688 124.633 269.688 124.3C269.688 123.633 270.004 122.983 270.638 122.35C271.271 121.683 271.938 121.35 272.638 121.35C273.104 121.35 273.454 121.5 273.688 121.8C273.921 122.1 274.038 122.417 274.038 122.75C274.038 123.45 273.721 124.117 273.088 124.75C272.488 125.383 271.821 125.7 271.088 125.7ZM263.438 141.05C262.071 141.05 261.138 140.767 260.638 140.2C260.171 139.6 259.938 138.933 259.938 138.2C259.938 137.6 260.038 137.033 260.238 136.5C260.438 135.933 260.604 135.533 260.738 135.3C260.938 134.967 261.204 134.583 261.538 134.15C261.904 133.717 262.304 133.25 262.738 132.75C262.071 133.317 261.438 133.867 260.838 134.4C260.271 134.933 259.804 135.333 259.437 135.6C259.337 135.7 259.237 135.75 259.137 135.75C259.004 135.75 258.937 135.667 258.937 135.5C258.937 135.233 259.121 134.967 259.487 134.7C260.354 133.967 261.188 133.167 261.988 132.3C262.821 131.433 263.604 130.633 264.338 129.9C265.071 129.133 265.721 128.6 266.288 128.3C266.888 127.967 267.371 127.75 267.738 127.65C268.104 127.55 268.404 127.5 268.638 127.5C269.004 127.5 269.271 127.567 269.438 127.7C269.604 127.8 269.638 127.917 269.538 128.05C268.971 128.617 268.404 129.35 267.838 130.25C267.304 131.117 266.804 132.033 266.338 133C265.871 133.967 265.488 134.883 265.188 135.75C264.921 136.617 264.788 137.35 264.788 137.95C264.788 138.783 265.121 139.2 265.788 139.2C266.421 139.2 267.238 138.917 268.238 138.35C269.271 137.75 270.338 137 271.438 136.1C272.571 135.2 273.621 134.317 274.588 133.45C274.721 133.317 274.838 133.25 274.938 133.25C275.104 133.25 275.188 133.333 275.188 133.5C275.221 133.667 275.188 133.783 275.088 133.85C273.988 134.883 272.738 135.967 271.338 137.1C269.971 138.2 268.588 139.133 267.188 139.9C265.821 140.667 264.571 141.05 263.438 141.05ZM283.307 141.25C281.974 141.25 281.04 140.933 280.507 140.3C279.974 139.633 279.707 138.867 279.707 138C279.707 137.167 279.857 136.283 280.157 135.35C280.49 134.417 280.857 133.533 281.257 132.7C280.824 133.167 280.407 133.6 280.007 134C279.607 134.367 279.274 134.667 279.007 134.9C278.874 135 278.74 135.05 278.607 135.05C278.44 135.05 278.357 134.967 278.357 134.8C278.357 134.633 278.457 134.483 278.657 134.35C279.357 133.75 280.174 132.933 281.107 131.9C282.04 130.867 282.907 129.817 283.707 128.75C284.374 127.883 285.174 126.8 286.107 125.5C287.04 124.2 287.99 122.833 288.957 121.4C289.924 119.933 290.757 118.6 291.457 117.4C291.557 117.2 291.657 116.95 291.757 116.65C291.89 116.35 291.957 116.083 291.957 115.85C291.957 115.517 291.824 115.35 291.557 115.35C291.49 115.35 291.29 115.417 290.957 115.55C290.657 115.683 290.357 115.817 290.057 115.95C289.757 116.083 289.574 116.15 289.507 116.15C289.24 116.15 289.257 116 289.557 115.7C290.09 115.3 290.757 114.917 291.557 114.55C292.39 114.15 293.24 113.817 294.107 113.55C294.974 113.283 295.707 113.15 296.307 113.15C297.707 113.15 298.407 113.6 298.407 114.5C298.407 114.967 298.19 115.583 297.757 116.35C297.39 116.95 296.857 117.667 296.157 118.5C295.457 119.3 294.674 120.167 293.807 121.1C292.974 122 292.157 122.9 291.357 123.8C290.557 124.667 289.89 125.433 289.357 126.1C289.224 126.267 288.89 126.7 288.357 127.4C287.857 128.1 287.274 128.95 286.607 129.95C285.974 130.917 285.324 131.95 284.657 133.05C284.024 134.117 283.49 135.15 283.057 136.15C282.657 137.117 282.457 137.933 282.457 138.6C282.457 139.5 282.89 139.95 283.757 139.95C284.324 139.95 285.04 139.783 285.907 139.45C286.74 139.15 287.607 138.7 288.507 138.1C289.44 137.467 290.34 136.8 291.207 136.1C292.107 135.4 292.89 134.733 293.557 134.1C294.257 133.467 294.774 132.983 295.107 132.65C295.307 132.45 295.474 132.35 295.607 132.35C295.74 132.35 295.807 132.433 295.807 132.6C295.807 132.767 295.724 132.933 295.557 133.1C295.024 133.667 294.29 134.4 293.357 135.3C292.457 136.2 291.44 137.117 290.307 138.05C289.207 138.95 288.057 139.717 286.857 140.35C285.657 140.95 284.474 141.25 283.307 141.25ZM312.504 145.4C311.971 144.933 311.571 144.333 311.304 143.6C311.071 142.9 310.954 142.1 310.954 141.2C310.954 140.367 311.038 139.483 311.204 138.55C311.404 137.617 311.654 136.633 311.954 135.6C311.321 136.4 310.604 137.217 309.804 138.05C309.038 138.883 308.304 139.6 307.604 140.2C306.204 141.333 304.688 141.9 303.054 141.9C301.821 141.9 300.771 141.517 299.904 140.75C299.038 139.95 298.604 138.717 298.604 137.05C298.604 136.617 298.638 136.2 298.704 135.8C298.804 135.4 298.921 135 299.054 134.6C298.854 134.767 298.654 134.933 298.454 135.1C298.288 135.267 298.121 135.417 297.954 135.55C297.821 135.65 297.688 135.7 297.554 135.7C297.388 135.7 297.304 135.617 297.304 135.45C297.304 135.25 297.471 135.017 297.804 134.75C298.238 134.383 298.721 133.883 299.254 133.25C299.821 132.617 300.438 131.933 301.104 131.2C302.271 129.9 303.688 128.85 305.354 128.05C307.054 127.25 308.721 126.85 310.354 126.85C311.754 126.85 312.771 127.1 313.404 127.6C314.071 128.1 314.404 128.7 314.404 129.4C315.238 127.633 316.104 125.95 317.004 124.35C317.938 122.717 318.804 121.283 319.604 120.05C320.438 118.817 321.121 117.9 321.654 117.3C322.021 116.867 322.471 116.55 323.004 116.35C323.571 116.15 324.138 116.05 324.704 116.05C325.271 116.05 325.821 116.133 326.354 116.3C326.888 116.467 327.354 116.733 327.754 117.1C327.421 117.3 326.888 117.783 326.154 118.55C325.454 119.283 324.638 120.2 323.704 121.3C322.804 122.4 321.854 123.583 320.854 124.85C319.888 126.117 318.971 127.383 318.104 128.65C317.071 130.15 316.088 131.767 315.154 133.5C314.254 135.233 313.521 136.917 312.954 138.55C312.388 140.15 312.104 141.567 312.104 142.8C312.104 143.8 312.321 144.567 312.754 145.1C312.854 145.233 312.854 145.317 312.754 145.35C312.654 145.417 312.571 145.433 312.504 145.4ZM304.604 140.2C305.204 140.2 306.004 139.9 307.004 139.3C308.004 138.667 309.238 137.6 310.704 136.1C311.171 135.633 311.538 135.233 311.804 134.9C312.104 134.533 312.354 134.183 312.554 133.85C312.721 133.383 312.888 132.933 313.054 132.5C313.221 132.067 313.404 131.633 313.604 131.2C313.404 131.333 313.254 131.4 313.154 131.4C312.888 131.4 312.754 131.25 312.754 130.95C312.754 130.817 312.804 130.65 312.904 130.45C313.238 129.883 313.404 129.383 313.404 128.95C313.404 128.25 313.004 127.9 312.204 127.9C311.771 127.9 311.188 128.033 310.454 128.3C309.621 128.633 308.754 129.15 307.854 129.85C306.988 130.517 306.171 131.317 305.404 132.25C304.671 133.15 304.071 134.083 303.604 135.05C303.171 136.017 302.954 136.933 302.954 137.8C302.954 138.433 303.071 139 303.304 139.5C303.571 139.967 304.004 140.2 304.604 140.2ZM334.867 125.7C334.4 125.7 334.05 125.55 333.817 125.25C333.583 124.95 333.467 124.633 333.467 124.3C333.467 123.633 333.783 122.983 334.417 122.35C335.05 121.683 335.717 121.35 336.417 121.35C336.883 121.35 337.233 121.5 337.467 121.8C337.7 122.1 337.817 122.417 337.817 122.75C337.817 123.45 337.5 124.117 336.867 124.75C336.267 125.383 335.6 125.7 334.867 125.7ZM327.217 141.05C325.85 141.05 324.917 140.767 324.417 140.2C323.95 139.6 323.717 138.933 323.717 138.2C323.717 137.6 323.817 137.033 324.017 136.5C324.217 135.933 324.383 135.533 324.517 135.3C324.717 134.967 324.983 134.583 325.317 134.15C325.683 133.717 326.083 133.25 326.517 132.75C325.85 133.317 325.217 133.867 324.617 134.4C324.05 134.933 323.583 135.333 323.217 135.6C323.117 135.7 323.017 135.75 322.917 135.75C322.783 135.75 322.717 135.667 322.717 135.5C322.717 135.233 322.9 134.967 323.267 134.7C324.133 133.967 324.967 133.167 325.767 132.3C326.6 131.433 327.383 130.633 328.117 129.9C328.85 129.133 329.5 128.6 330.067 128.3C330.667 127.967 331.15 127.75 331.517 127.65C331.883 127.55 332.183 127.5 332.417 127.5C332.783 127.5 333.05 127.567 333.217 127.7C333.383 127.8 333.417 127.917 333.317 128.05C332.75 128.617 332.183 129.35 331.617 130.25C331.083 131.117 330.583 132.033 330.117 133C329.65 133.967 329.267 134.883 328.967 135.75C328.7 136.617 328.567 137.35 328.567 137.95C328.567 138.783 328.9 139.2 329.567 139.2C330.2 139.2 331.017 138.917 332.017 138.35C333.05 137.75 334.117 137 335.217 136.1C336.35 135.2 337.4 134.317 338.367 133.45C338.5 133.317 338.617 133.25 338.717 133.25C338.883 133.25 338.967 133.333 338.967 133.5C339 133.667 338.967 133.783 338.867 133.85C337.767 134.883 336.517 135.967 335.117 137.1C333.75 138.2 332.367 139.133 330.967 139.9C329.6 140.667 328.35 141.05 327.217 141.05ZM342.236 141.25C341.903 141.25 341.503 141.167 341.036 141C340.57 140.867 340.103 140.6 339.636 140.2C340.003 139.7 340.536 139.033 341.236 138.2C341.903 137.333 342.62 136.383 343.386 135.35C344.153 134.317 344.87 133.283 345.536 132.25C345.003 132.783 344.42 133.35 343.786 133.95C343.153 134.55 342.52 135.1 341.886 135.6C341.753 135.733 341.603 135.8 341.436 135.8C341.303 135.8 341.236 135.733 341.236 135.6C341.236 135.433 341.37 135.233 341.636 135C342.57 134.167 343.603 133.217 344.736 132.15C345.903 131.05 346.753 129.933 347.286 128.8C347.453 128.4 347.536 128.033 347.536 127.7C347.536 127.267 347.453 127 347.286 126.9C347.153 126.8 347.086 126.667 347.086 126.5C347.086 126.2 347.236 126.05 347.536 126.05C347.703 126.05 347.836 126.083 347.936 126.15C348.303 126.317 348.653 126.633 348.986 127.1C349.32 127.567 349.486 128.267 349.486 129.2C349.486 129.733 349.42 130.35 349.286 131.05C349.153 131.717 348.92 132.483 348.586 133.35C349.086 132.683 349.586 132.033 350.086 131.4C350.62 130.767 351.103 130.2 351.536 129.7C352.436 128.667 353.336 127.933 354.236 127.5C355.17 127.033 356.003 126.8 356.736 126.8C357.603 126.8 358.303 127.05 358.836 127.55C359.37 128.05 359.636 128.7 359.636 129.5C359.636 130.133 359.47 130.783 359.136 131.45C359.036 131.717 358.803 132.133 358.436 132.7C358.07 133.233 357.67 133.817 357.236 134.45C356.803 135.083 356.403 135.65 356.036 136.15C355.603 136.683 355.303 137.15 355.136 137.55C354.97 137.917 354.886 138.217 354.886 138.45C354.886 138.783 355.07 138.95 355.436 138.95C355.903 138.95 356.553 138.7 357.386 138.2C357.886 137.9 358.453 137.5 359.086 137C359.753 136.467 360.403 135.933 361.036 135.4C361.703 134.833 362.236 134.367 362.636 134C362.77 133.867 362.886 133.8 362.986 133.8C363.12 133.8 363.186 133.883 363.186 134.05C363.186 134.25 363.103 134.433 362.936 134.6C361.936 135.533 360.77 136.55 359.436 137.65C358.136 138.75 356.853 139.6 355.586 140.2C354.553 140.7 353.603 140.95 352.736 140.95C352.003 140.95 351.42 140.767 350.986 140.4C350.553 140 350.336 139.433 350.336 138.7C350.336 138.167 350.47 137.533 350.736 136.8C351.07 135.9 351.536 135 352.136 134.1C352.77 133.2 353.42 132.35 354.086 131.55C354.786 130.717 355.386 130.017 355.886 129.45C356.32 128.983 356.536 128.583 356.536 128.25C356.536 127.95 356.336 127.8 355.936 127.8C355.536 127.8 354.936 128.033 354.136 128.5C353.37 128.933 352.503 129.65 351.536 130.65C350.17 132.083 348.97 133.633 347.936 135.3C346.903 136.967 345.72 138.533 344.386 140C343.653 140.833 342.936 141.25 342.236 141.25ZM362.909 154.35C360.876 154.35 359.193 154.117 357.859 153.65C356.526 153.183 355.459 152.55 354.659 151.75C354.126 151.183 353.626 150.433 353.159 149.5C352.693 148.6 352.459 147.833 352.459 147.2C352.459 146.967 352.509 146.85 352.609 146.85C352.843 146.85 352.993 146.983 353.059 147.25C353.059 147.35 353.176 147.733 353.409 148.4C353.609 149.067 353.993 149.8 354.559 150.6C355.126 151.4 355.959 152.1 357.059 152.7C358.159 153.3 359.593 153.6 361.359 153.6C363.459 153.6 365.343 153.1 367.009 152.1C368.676 151.133 370.159 149.85 371.459 148.25C372.793 146.683 374.009 144.967 375.109 143.1C376.209 141.233 377.259 139.4 378.259 137.6C379.259 135.8 380.276 134.217 381.309 132.85C380.876 133.317 380.326 133.9 379.659 134.6C379.026 135.267 378.343 135.95 377.609 136.65C376.876 137.35 376.176 137.983 375.509 138.55C374.843 139.117 374.293 139.533 373.859 139.8C373.126 140.233 372.426 140.55 371.759 140.75C371.126 140.95 370.543 141.05 370.009 141.05C368.976 141.05 368.176 140.733 367.609 140.1C367.043 139.433 366.759 138.583 366.759 137.55C366.759 136.583 367.009 135.517 367.509 134.35C368.043 133.183 368.876 132 370.009 130.8C371.176 129.533 372.626 128.517 374.359 127.75C376.093 126.95 377.743 126.55 379.309 126.55C379.876 126.55 380.426 126.617 380.959 126.75C381.493 126.85 381.976 127.033 382.409 127.3C383.009 127.667 383.443 128.017 383.709 128.35C384.009 128.65 384.226 129.017 384.359 129.45C384.559 129.45 384.876 129.55 385.309 129.75C385.743 129.917 386.143 130.133 386.509 130.4C386.876 130.633 387.059 130.883 387.059 131.15C387.059 131.283 386.926 131.433 386.659 131.6C385.993 131.933 385.243 132.733 384.409 134C383.576 135.233 382.643 136.717 381.609 138.45C380.609 140.15 379.476 141.917 378.209 143.75C376.976 145.617 375.593 147.35 374.059 148.95C372.526 150.55 370.826 151.85 368.959 152.85C367.126 153.85 365.109 154.35 362.909 154.35ZM371.409 139.75C372.076 139.75 372.893 139.417 373.859 138.75C374.593 138.25 375.393 137.633 376.259 136.9C377.126 136.133 377.976 135.333 378.809 134.5C379.643 133.667 380.359 132.9 380.959 132.2C382.059 130.933 382.609 129.9 382.609 129.1C382.609 128.433 382.209 128.1 381.409 128.1C380.609 128.1 379.509 128.483 378.109 129.25C377.309 129.683 376.459 130.3 375.559 131.1C374.659 131.9 373.809 132.767 373.009 133.7C372.243 134.633 371.626 135.5 371.159 136.3C370.626 137.267 370.359 138.05 370.359 138.65C370.359 139.383 370.709 139.75 371.409 139.75ZM425.6 142.95C424 142.95 422.416 142.75 420.85 142.35C419.283 141.983 417.85 141.383 416.55 140.55C415.25 139.717 414.216 138.65 413.45 137.35C412.683 136.05 412.3 134.483 412.3 132.65C412.3 130.917 412.65 129.25 413.35 127.65C414.05 126.05 414.95 124.55 416.05 123.15C417.183 121.75 418.35 120.5 419.55 119.4C421.25 117.867 423.183 116.383 425.35 114.95C427.516 113.517 429.816 112.233 432.25 111.1C434.716 109.967 437.2 109.067 439.7 108.4C442.2 107.733 444.6 107.4 446.9 107.4C447.9 107.4 448.983 107.55 450.15 107.85C451.35 108.15 452.366 108.65 453.2 109.35C454.066 110.05 454.5 111.033 454.5 112.3C454.5 113.433 454.116 114.55 453.35 115.65C452.583 116.75 451.566 117.783 450.3 118.75C449.033 119.717 447.633 120.617 446.1 121.45C444.566 122.25 443 122.967 441.4 123.6C439.833 124.2 438.35 124.683 436.95 125.05C435.55 125.417 434.366 125.65 433.4 125.75C433.166 125.783 432.933 125.8 432.7 125.8C432.466 125.8 432.233 125.8 432 125.8C431.8 125.8 431.383 125.783 430.75 125.75C430.116 125.683 429.516 125.567 428.95 125.4C428.383 125.233 428.1 124.983 428.1 124.65C428.1 124.483 428.2 124.4 428.4 124.4C428.533 124.4 428.7 124.433 428.9 124.5C429.1 124.567 429.35 124.6 429.65 124.6C430.45 124.6 431.483 124.4 432.75 124C434.016 123.6 435.383 123.067 436.85 122.4C438.35 121.7 439.833 120.917 441.3 120.05C442.766 119.183 444.116 118.267 445.35 117.3C446.583 116.333 447.566 115.367 448.3 114.4C449.033 113.433 449.4 112.517 449.4 111.65C449.4 110.85 449.116 110.267 448.55 109.9C447.983 109.5 447.316 109.233 446.55 109.1C445.783 108.967 445.116 108.9 444.55 108.9C442.45 108.9 440.283 109.217 438.05 109.85C435.85 110.483 433.666 111.35 431.5 112.45C429.366 113.517 427.333 114.717 425.4 116.05C423.5 117.383 421.8 118.75 420.3 120.15C419.266 121.117 418.233 122.233 417.2 123.5C416.2 124.733 415.366 126.067 414.7 127.5C414.033 128.9 413.7 130.35 413.7 131.85C413.7 133.517 414.1 134.917 414.9 136.05C415.7 137.183 416.733 138.1 418 138.8C419.3 139.467 420.7 139.95 422.2 140.25C423.7 140.55 425.133 140.7 426.5 140.7C427.366 140.7 428.233 140.667 429.1 140.6C429.966 140.5 430.816 140.383 431.65 140.25C433.883 139.85 435.916 139.367 437.75 138.8C439.616 138.233 441.4 137.5 443.1 136.6C444.8 135.7 446.533 134.533 448.3 133.1C448.433 133.033 448.516 133 448.55 133C448.716 133 448.8 133.1 448.8 133.3C448.8 133.4 448.733 133.55 448.6 133.75C447.3 135.15 445.716 136.417 443.85 137.55C442.016 138.683 440.05 139.65 437.95 140.45C435.85 141.25 433.733 141.867 431.6 142.3C429.466 142.733 427.466 142.95 425.6 142.95ZM454.787 141.05C453.754 141.05 452.954 140.733 452.387 140.1C451.82 139.433 451.537 138.583 451.537 137.55C451.537 136.583 451.787 135.517 452.287 134.35C452.82 133.183 453.654 132 454.787 130.8C455.954 129.533 457.404 128.517 459.137 127.75C460.87 126.95 462.52 126.55 464.087 126.55C465.354 126.55 466.437 126.833 467.337 127.4C468.237 127.933 468.837 128.617 469.137 129.45C469.504 129.45 469.954 129.55 470.487 129.75C471.054 129.95 471.337 130.317 471.337 130.85C471.337 131.217 471.154 131.633 470.787 132.1C470.554 132.433 470.137 132.933 469.537 133.6C468.97 134.267 468.437 134.983 467.937 135.75C467.537 136.35 467.22 136.917 466.987 137.45C466.754 137.95 466.637 138.383 466.637 138.75C466.637 139.25 466.887 139.5 467.387 139.5C467.954 139.5 468.804 139.183 469.937 138.55C471.17 137.85 472.354 137.05 473.487 136.15C474.62 135.25 475.504 134.533 476.137 134C476.304 133.867 476.42 133.8 476.487 133.8C476.62 133.8 476.687 133.883 476.687 134.05C476.687 134.25 476.604 134.433 476.437 134.6C476.137 134.867 475.554 135.367 474.687 136.1C473.82 136.833 472.82 137.6 471.687 138.4C470.587 139.2 469.504 139.85 468.437 140.35C467.904 140.583 467.404 140.767 466.937 140.9C466.504 141 466.104 141.05 465.737 141.05C464.837 141.05 464.154 140.8 463.687 140.3C463.22 139.767 462.987 139.083 462.987 138.25C462.987 137.917 463.037 137.567 463.137 137.2C463.237 136.833 463.354 136.467 463.487 136.1L463.837 135.25C462.97 136.317 462.104 137.217 461.237 137.95C460.37 138.65 459.504 139.267 458.637 139.8C457.904 140.233 457.204 140.55 456.537 140.75C455.904 140.95 455.32 141.05 454.787 141.05ZM456.337 139.75C456.937 139.75 457.804 139.4 458.937 138.7C460.07 137.967 461.387 136.85 462.887 135.35C463.087 135.15 463.454 134.8 463.987 134.3C464.554 133.767 465.154 133.183 465.787 132.55C466.42 131.883 466.954 131.233 467.387 130.6C467.854 129.933 468.087 129.383 468.087 128.95C468.087 128.317 467.537 128 466.437 128C465.47 128 464.304 128.383 462.937 129.15C461.604 129.883 460.32 130.983 459.087 132.45C457.82 133.95 456.887 135.25 456.287 136.35C455.72 137.417 455.437 138.233 455.437 138.8C455.437 139.433 455.737 139.75 456.337 139.75ZM483.666 141.55C482.333 141.55 481.166 141.3 480.166 140.8C479.133 140.267 478.383 139.3 477.916 137.9C477.883 137.767 477.933 137.683 478.066 137.65C478.166 137.617 478.233 137.683 478.266 137.85C478.6 138.583 479.033 139.1 479.566 139.4C480.1 139.7 480.683 139.85 481.316 139.85C482.383 139.85 483.316 139.533 484.116 138.9C484.95 138.267 485.683 137.467 486.316 136.5C486.983 135.533 487.566 134.55 488.066 133.55C488.6 132.517 489.1 131.633 489.566 130.9C490.3 129.667 491.166 128.55 492.166 127.55C493.2 126.55 494.133 125.933 494.966 125.7C494.766 125.6 494.516 125.55 494.216 125.55C493.383 125.55 492.466 125.8 491.466 126.3C490.466 126.8 489.45 127.45 488.416 128.25C487.416 129.05 486.433 129.9 485.466 130.8C484.533 131.667 483.666 132.483 482.866 133.25C482.1 133.983 481.483 134.567 481.016 135C480.75 135.233 480.55 135.35 480.416 135.35C480.283 135.35 480.216 135.283 480.216 135.15C480.216 134.95 480.3 134.767 480.466 134.6C481.466 133.733 482.5 132.767 483.566 131.7C484.633 130.6 485.716 129.55 486.816 128.55C487.916 127.517 489.033 126.667 490.166 126C491.3 125.333 492.45 125 493.616 125C493.75 125 493.866 125 493.966 125C494.1 125 494.233 125.017 494.366 125.05C494.733 125.083 495.066 125.183 495.366 125.35C495.7 125.517 495.8 125.633 495.666 125.7C494.9 126.033 494.3 126.7 493.866 127.7C493.433 128.7 493.033 129.867 492.666 131.2C492.3 132.533 491.85 133.883 491.316 135.25C490.816 136.617 490.083 137.833 489.116 138.9C489.583 138.733 490.316 138.35 491.316 137.75C492.316 137.15 493.416 136.417 494.616 135.55C495.816 134.65 496.933 133.667 497.966 132.6C498.1 132.467 498.233 132.4 498.366 132.4C498.533 132.4 498.616 132.483 498.616 132.65C498.616 132.783 498.55 132.917 498.416 133.05C497.516 133.917 496.516 134.85 495.416 135.85C494.316 136.817 493.116 137.733 491.816 138.6C490.55 139.467 489.233 140.183 487.866 140.75C486.5 141.283 485.1 141.55 483.666 141.55ZM505.998 141.5C504.532 141.5 503.298 141.15 502.298 140.45C501.332 139.717 500.848 138.667 500.848 137.3C500.848 135.833 501.198 134.467 501.898 133.2C502.598 131.933 503.532 130.833 504.698 129.9C505.865 128.933 507.132 128.183 508.498 127.65C509.898 127.117 511.282 126.85 512.648 126.85C514.015 126.85 515.032 127.1 515.698 127.6C516.365 128.067 516.698 128.65 516.698 129.35C516.698 130.017 516.382 130.733 515.748 131.5C515.148 132.233 514.265 132.883 513.098 133.45C512.365 133.783 511.515 134.083 510.548 134.35C509.615 134.583 508.798 134.7 508.098 134.7C507.565 134.7 507.298 134.617 507.298 134.45C507.298 134.317 507.532 134.25 507.998 134.25C508.432 134.25 509.098 134.133 509.998 133.9C510.932 133.633 511.832 133.283 512.698 132.85C513.665 132.317 514.348 131.783 514.748 131.25C515.148 130.717 515.348 130.233 515.348 129.8C515.348 129.4 515.182 129.067 514.848 128.8C514.548 128.533 514.115 128.4 513.548 128.4C513.015 128.4 512.415 128.55 511.748 128.85C510.782 129.283 509.782 130 508.748 131C507.748 131.967 506.915 133.033 506.248 134.2C505.582 135.367 505.248 136.483 505.248 137.55C505.248 138.283 505.448 138.9 505.848 139.4C506.282 139.9 506.915 140.15 507.748 140.15C508.615 140.15 509.615 139.883 510.748 139.35C511.882 138.783 513.032 138.1 514.198 137.3C515.365 136.467 516.448 135.633 517.448 134.8C518.448 133.967 519.248 133.267 519.848 132.7C520.048 132.5 520.198 132.4 520.298 132.4C520.398 132.4 520.448 132.483 520.448 132.65C520.448 132.883 520.348 133.083 520.148 133.25C518.882 134.417 517.498 135.633 515.998 136.9C514.532 138.167 512.948 139.25 511.248 140.15C509.582 141.017 507.832 141.467 505.998 141.5Z" fill="#A17711"/>
</svg>
