<svg width="542" height="158" viewBox="0 0 542 158" fill="none" xmlns="http://www.w3.org/2000/svg">
<path d="M33.3936 54L98.2323 5" stroke="#0E6EB8" stroke-width="8" stroke-linecap="round"/>
<path d="M33.3936 54V150" stroke="#0E6EB8" stroke-width="8" stroke-linecap="round"/>
<path d="M33.3936 85L4.00001 106" stroke="#0E6EB8" stroke-width="8" stroke-linecap="round"/>
<path d="M4 150L4 106" stroke="#0E6EB8" stroke-width="8" stroke-linecap="round"/>
<path d="M4 150H33.3935" stroke="#0E6EB8" stroke-width="8" stroke-linecap="round"/>
<path d="M33.3936 85L61.0581 108" stroke="#0E6EB8" stroke-width="8" stroke-linecap="round"/>
<path d="M61.0581 150L61.0581 108" stroke="#0E6EB8" stroke-width="8" stroke-linecap="round"/>
<path d="M61.0581 150H74.8904" stroke="#0E6EB8" stroke-width="8" stroke-linecap="round"/>
<path d="M74.8904 97V150" stroke="#0E6EB8" stroke-width="8" stroke-linecap="round"/>
<path d="M74.8904 97L98.2323 74" stroke="#0E6EB8" stroke-width="8" stroke-linecap="round"/>
<path d="M138 74L98.2323 74" stroke="#0E6EB8" stroke-width="8" stroke-linecap="round"/>
<path d="M138 74V102" stroke="#0E6EB8" stroke-width="8" stroke-linecap="round"/>
<path d="M99.9612 102L138 102" stroke="#0E6EB8" stroke-width="8" stroke-linecap="round"/>
<path d="M99.9612 102L136.271 150" stroke="#0E6EB8" stroke-width="8" stroke-linecap="round"/>
<path d="M99.9612 150L98.2321 4.99969" stroke="#0E6EB8" stroke-width="8" stroke-linecap="round"/>
<path d="M182.085 57.245H211.335V60.575H182.085V57.245ZM184.695 69.35H208.32V72.5H184.695V69.35ZM182.715 75.425H210.345V78.845H182.715V75.425ZM194.055 48.38H198.195V83.12H194.055V48.38ZM185.235 51.35H207.915V66.605H184.965V63.275H203.775V54.635H185.235V51.35ZM169.665 50.72H179.295V54.5H169.665V50.72ZM177.81 50.72H178.35L179.025 50.54L181.905 51.395C179.88 56.39 176.595 63.365 173.895 68.855L170.07 67.82C172.815 62.42 176.19 55.085 177.81 51.215V50.72ZM173.985 63.5H181.005V67.28H173.67L173.985 63.5ZM179.295 63.5H180.105L180.87 63.41L183.345 63.995C182.085 77.315 178.35 85.64 172.5 89.915C171.87 89.105 170.205 87.575 169.305 87.035C174.93 83.165 178.26 75.875 179.295 64.31V63.5ZM174.165 70.43C177.81 82.535 186.135 84.56 197.205 84.605C199.455 84.605 208.95 84.605 211.74 84.515C211.065 85.46 210.3 87.44 210.03 88.655H197.115C184.065 88.655 175.29 85.955 170.835 71.645L174.165 70.43ZM236.67 48.02L240.54 48.785C238.875 56.21 235.905 63.185 232.17 67.685C231.495 67.01 229.83 65.795 228.93 65.255C232.62 61.25 235.23 54.77 236.67 48.02ZM252.015 55.355H256.065C256.065 55.355 256.02 56.84 255.975 57.38C255.03 77.765 254.13 84.965 252.375 87.215C251.385 88.565 250.485 89.015 249.045 89.24C247.83 89.42 245.895 89.42 243.915 89.285C243.825 88.07 243.42 86.27 242.745 85.1C244.59 85.28 246.3 85.325 247.155 85.325C247.875 85.325 248.28 85.145 248.82 84.515C250.215 82.895 251.16 75.785 252.015 56.3V55.355ZM237.075 55.355H253.77V59.315H235.185L237.075 55.355ZM241.035 56.615L244.185 58.19C242.295 66.065 238.155 75.02 233.16 79.52C232.305 78.71 230.955 77.72 229.83 77.09C235.095 72.95 239.235 64.355 241.035 56.615ZM247.38 56.975L250.755 58.55C248.505 70.475 243.6 82.805 236.085 88.925C235.275 88.07 233.745 86.99 232.575 86.405C240.405 80.78 245.265 68.765 247.38 56.975ZM214.395 72.815C218.715 71.78 225.195 69.89 231.36 68.09L231.9 71.825C226.23 73.625 220.11 75.515 215.475 76.91L214.395 72.815ZM222.675 48.065H226.59V89.78H222.675V48.065ZM216.915 50.63L220.56 51.215C219.93 57.2 218.805 63.365 217.14 67.37C216.51 66.875 214.89 65.885 214.035 65.48C215.61 61.745 216.465 56.075 216.915 50.63ZM217.635 57.02H230.865V61.115H216.87L217.635 57.02ZM278.16 48.02H282.48V85.415C282.48 87.755 281.85 88.7 280.32 89.33C278.745 89.87 276.36 89.915 272.58 89.915C272.355 88.925 271.68 87.395 271.14 86.495C273.57 86.585 276.27 86.54 277.035 86.54C277.89 86.495 278.16 86.225 278.16 85.415V48.02ZM260.88 51.35H300.165V54.77H260.88V51.35ZM269.61 59.9V62.645H291.345V59.9H269.61ZM265.56 57.065H295.71V65.48H265.56V57.065ZM264.345 68.135H296.43V85.055H292.11V71.15H264.345V68.135ZM259.935 73.76H301.11V77.045H259.935V73.76ZM263.94 79.88H294.405V83.075H263.94V79.88ZM316.86 50.18H333.06V53.96H316.86V50.18ZM321.315 59.675H329.505V63.41H320.145L321.315 59.675ZM318.66 70.835L320.46 67.64C322.665 69.08 325.32 71.195 326.535 72.59L324.645 76.19C323.43 74.66 320.82 72.41 318.66 70.835ZM333.06 53.195H336.885V79.34H333.06V53.195ZM341.025 48.83H344.985V84.74C344.985 87.215 344.445 88.34 343.005 89.015C341.52 89.735 339.18 89.825 335.625 89.825C335.445 88.745 334.86 86.855 334.275 85.685C336.885 85.775 339.225 85.775 340.035 85.73C340.755 85.685 341.025 85.505 341.025 84.74V48.83ZM320.775 51.53L324.87 52.07C323.61 60.08 321.315 69.71 316.365 75.47C315.78 74.615 314.61 73.22 313.8 72.5C318.12 67.325 320.01 58.415 320.775 51.53ZM327.93 59.675H328.695L329.37 59.54L331.845 60.305C330.135 74.975 325.275 84.875 318.345 89.87C317.76 88.88 316.455 87.26 315.6 86.63C322.17 82.13 326.535 73.355 327.93 60.53V59.675ZM312.99 48.155L316.95 49.325C314.385 57.11 310.29 65.255 305.79 70.52C305.43 69.53 304.35 67.145 303.675 66.065C307.455 61.655 310.92 54.905 312.99 48.155ZM309.39 59.81L313.215 55.985L313.305 56.075V89.78H309.39V59.81ZM372.165 57.65H383.955V60.845H372.165V57.65ZM371.85 64.58H384.45V67.82H371.85V64.58ZM376.305 54.185H379.68V66.47H376.305V54.185ZM368.43 49.82H387.645V53.465H368.43V49.82ZM374.055 70.745H383.775V82.535H374.055V79.385H380.625V73.895H374.055V70.745ZM372.345 70.745H375.45V84.245H372.345V70.745ZM386.115 49.82H390.03V84.785C390.03 87.035 389.625 88.295 388.23 89.015C386.88 89.69 384.63 89.78 381.345 89.78C381.165 88.655 380.67 86.72 380.085 85.595C382.335 85.685 384.54 85.64 385.26 85.64C385.89 85.64 386.115 85.46 386.115 84.74V49.82ZM366.315 49.82H370.185V66.29C370.185 73.355 369.69 83.48 366.045 90.05C365.325 89.375 363.615 88.16 362.715 87.755C366.09 81.635 366.315 72.86 366.315 66.29V49.82ZM351.375 61.745H363.12V65.03H351.375V61.745ZM351.69 49.55H363.03V52.835H351.69V49.55ZM351.375 67.82H363.12V71.105H351.375V67.82ZM349.53 55.49H364.29V58.955H349.53V55.49ZM353.355 73.94H363.075V87.26H353.355V83.84H359.61V77.36H353.355V73.94ZM351.285 73.94H354.705V89.285H351.285V73.94ZM395.25 85.145H435.795V88.925H395.25V85.145ZM404.835 73.715H426.12V76.73H404.835V73.715ZM404.835 79.385H426.12V82.445H404.835V79.385ZM402.765 67.595H428.28V87.215H423.915V71.105H406.95V87.395H402.765V67.595ZM395.475 53.465H435.57V57.155H395.475V53.465ZM413.205 48.02H417.435V66.245H413.205V48.02ZM411.045 54.635L414.51 55.985C410.55 61.88 403.71 67.055 397.05 69.665C396.42 68.72 395.25 67.19 394.35 66.38C400.785 64.22 407.58 59.54 411.045 54.635ZM419.46 54.68C422.97 59.495 429.9 63.95 436.56 65.975C435.615 66.785 434.4 68.36 433.77 69.44C426.975 66.92 420.09 61.79 416.085 56.03L419.46 54.68ZM447.045 78.53H470.715V81.635H447.045V78.53ZM440.43 71.51H480.615V74.885H440.43V71.51ZM454.155 68.36L458.34 69.035C455.55 74.66 450.42 79.34 441.69 82.445C441.195 81.5 440.07 80.06 439.215 79.43C447.405 76.91 452.13 72.725 454.155 68.36ZM469.185 72.59C471.75 75.605 476.97 78.35 481.92 79.52C481.02 80.33 479.805 81.905 479.22 82.94C474.09 81.275 468.825 77.765 465.855 73.85L469.185 72.59ZM469.23 78.53H473.28C473.28 78.53 473.235 79.52 473.19 80.06C472.695 85.1 472.155 87.395 471.165 88.43C470.355 89.195 469.455 89.42 468.15 89.51C467.07 89.6 464.955 89.6 462.75 89.555C462.66 88.475 462.255 87.035 461.715 86.135C463.695 86.315 465.585 86.36 466.395 86.36C467.07 86.36 467.475 86.27 467.835 85.955C468.465 85.37 468.87 83.525 469.23 79.025V78.53ZM457.395 75.65H461.49C460.41 83.255 457.575 87.755 446.145 90.005C445.785 89.015 444.795 87.53 444.075 86.765C454.38 85.01 456.54 81.59 457.395 75.65ZM441.015 50.765H479.985V54.23H441.015V50.765ZM450.87 48.02H454.965V56.21H450.87V48.02ZM465.81 48.02H469.995V56.21H465.81V48.02ZM449.61 64.355V66.74H471.435V64.355H449.61ZM449.61 59.45V61.835H471.435V59.45H449.61ZM445.515 56.84H475.71V69.35H445.515V56.84ZM485.295 75.65H525.705V79.115H485.295V75.65ZM493.305 59.045H520.89V61.925H493.305V59.045ZM493.305 64.445H521.025V67.37H493.305V64.445ZM492.54 53.15H522.915V56.57H492.54V53.15ZM504.285 55.22H508.38V71.195H504.285V55.22ZM503.25 72.32H507.48V89.78H503.25V72.32ZM502.665 77L505.905 78.62C501.36 83.255 493.485 87.395 486.78 89.42C486.15 88.34 484.935 86.765 483.99 85.865C490.74 84.29 498.615 80.78 502.665 77ZM508.2 76.91C512.16 80.645 519.945 84.065 526.695 85.64C525.795 86.495 524.58 88.07 523.995 89.105C517.245 87.17 509.46 83.12 504.915 78.575L508.2 76.91ZM506.445 48.02L511.215 48.65C509.91 51.17 508.38 53.69 507.21 55.4L503.43 54.635C504.555 52.79 505.815 50 506.445 48.02ZM494.79 47.93L499.2 48.785C496.41 53.87 492.54 59.225 487.095 63.68C486.42 62.735 484.98 61.43 484.035 60.845C489.075 57.02 492.765 51.98 494.79 47.93ZM490.605 55.4H494.655V69.98H524.49V73.265H490.605V55.4Z" fill="#00C0DD"/>
<path d="M202.104 140.05C200.204 140.05 198.621 139.683 197.354 138.95C196.087 138.217 195.337 137.083 195.104 135.55V135.25C194.837 135.617 194.521 136.05 194.154 136.55C193.821 137.05 193.454 137.467 193.054 137.8C192.687 138.167 192.304 138.35 191.904 138.35C191.837 138.35 191.637 138.317 191.304 138.25C191.004 138.183 190.704 138.1 190.404 138C190.137 137.9 189.987 137.783 189.954 137.65C189.854 137.017 190.004 136.117 190.404 134.95C190.837 133.75 191.387 132.433 192.054 131C192.754 129.567 193.471 128.133 194.204 126.7C194.971 125.267 195.671 123.983 196.304 122.85C196.937 121.683 197.387 120.8 197.654 120.2C197.854 119.833 197.987 119.533 198.054 119.3C198.121 119.033 198.154 118.833 198.154 118.7C198.154 118.5 198.121 118.333 198.054 118.2C198.121 117.8 198.354 117.267 198.754 116.6C199.187 115.933 199.721 115.267 200.354 114.6C200.987 113.933 201.671 113.383 202.404 112.95C203.137 112.483 203.821 112.25 204.454 112.25C204.654 112.25 204.954 112.317 205.354 112.45C205.787 112.55 206.187 112.717 206.554 112.95C206.954 113.183 207.204 113.517 207.304 113.95C207.337 114.05 207.354 114.15 207.354 114.25C207.354 114.35 207.321 114.4 207.254 114.4C207.187 114.4 207.087 114.383 206.954 114.35C206.854 114.283 206.771 114.25 206.704 114.25C205.937 114.25 205.104 114.617 204.204 115.35C203.304 116.083 202.371 117.067 201.404 118.3C200.471 119.533 199.554 120.883 198.654 122.35C197.754 123.817 196.887 125.3 196.054 126.8C195.254 128.267 194.554 129.633 193.954 130.9C193.354 132.133 192.887 133.133 192.554 133.9C192.287 134.633 192.154 135.15 192.154 135.45C192.154 135.917 192.337 136.15 192.704 136.15C193.171 136.15 193.671 135.833 194.204 135.2C194.571 134.767 194.904 134.367 195.204 134C195.537 133.6 195.821 133.433 196.054 133.5C196.521 133.5 196.837 133.633 197.004 133.9C197.171 134.133 197.271 134.417 197.304 134.75C197.337 135.083 197.371 135.383 197.404 135.65C197.637 136.683 198.171 137.533 199.004 138.2C199.871 138.9 201.071 139.25 202.604 139.25C204.237 139.25 205.704 138.983 207.004 138.45C208.304 137.917 209.337 137.183 210.104 136.25C210.871 135.283 211.254 134.2 211.254 133C211.254 132.167 211.054 131.3 210.654 130.4C210.254 129.467 209.621 128.533 208.754 127.6C208.021 126.733 207.204 125.917 206.304 125.15C205.404 124.383 204.621 123.683 203.954 123.05C203.321 122.383 203.004 121.817 203.004 121.35C203.004 120.95 203.271 120.6 203.804 120.3C204.337 119.967 204.771 119.8 205.104 119.8C205.871 119.8 206.837 119.65 208.004 119.35C209.204 119.05 210.437 118.65 211.704 118.15C212.971 117.617 214.121 117.033 215.154 116.4C216.221 115.767 217.004 115.133 217.504 114.5C217.804 114.133 218.037 113.75 218.204 113.35C218.404 112.917 218.504 112.5 218.504 112.1C218.504 111.467 218.221 110.9 217.654 110.4C217.121 109.867 216.204 109.483 214.904 109.25C214.537 109.15 214.104 109.083 213.604 109.05C213.104 109.017 212.571 109 212.004 109C210.304 109 208.337 109.167 206.104 109.5C203.871 109.8 201.604 110.25 199.304 110.85C197.004 111.45 194.854 112.2 192.854 113.1C190.854 114 189.204 115.05 187.904 116.25C186.637 117.417 185.921 118.717 185.754 120.15C185.687 120.983 185.887 121.617 186.354 122.05C186.821 122.483 187.371 122.817 188.004 123.05C188.637 123.25 189.137 123.45 189.504 123.65C189.804 123.783 189.954 123.917 189.954 124.05C189.954 124.217 189.771 124.3 189.404 124.3C189.004 124.3 188.504 124.2 187.904 124C187.304 123.8 186.704 123.5 186.104 123.1C185.537 122.667 185.071 122.15 184.704 121.55C184.337 120.95 184.204 120.25 184.304 119.45C184.304 119.383 184.287 119.267 184.254 119.1C184.221 118.9 184.204 118.75 184.204 118.65C184.304 117.583 184.754 116.567 185.554 115.6C186.387 114.633 187.354 113.75 188.454 112.95C189.587 112.15 190.637 111.483 191.604 110.95C192.671 110.383 193.954 109.867 195.454 109.4C196.954 108.9 198.554 108.467 200.254 108.1C201.987 107.733 203.737 107.45 205.504 107.25C207.271 107.017 208.921 106.9 210.454 106.9C212.087 106.9 213.521 107.033 214.754 107.3C216.421 107.667 217.704 108.317 218.604 109.25C219.504 110.183 219.954 111.217 219.954 112.35C219.921 113.583 219.537 114.667 218.804 115.6C218.104 116.5 217.187 117.267 216.054 117.9C214.921 118.533 213.687 119.067 212.354 119.5C211.054 119.9 209.771 120.2 208.504 120.4C207.237 120.6 206.137 120.717 205.204 120.75C206.604 121.583 207.987 122.517 209.354 123.55C210.754 124.55 211.904 125.65 212.804 126.85C213.737 128.05 214.204 129.367 214.204 130.8C214.204 131.6 214.021 132.433 213.654 133.3C213.321 134.133 212.771 135.033 212.004 136C211.004 137.233 209.604 138.217 207.804 138.95C206.037 139.683 204.137 140.05 202.104 140.05ZM237.47 137.5C236.87 137.5 236.337 137.367 235.87 137.1C235.403 136.833 235.053 136.333 234.82 135.6C234.787 135.433 234.737 135.25 234.67 135.05C234.637 134.817 234.62 134.583 234.62 134.35C234.62 133.55 234.72 132.65 234.92 131.65C235.153 130.65 235.403 129.817 235.67 129.15C235.537 129.25 235.303 129.583 234.97 130.15C234.637 130.717 234.22 131.383 233.72 132.15C233.22 132.883 232.653 133.633 232.02 134.4C231.42 135.133 230.753 135.75 230.02 136.25C229.32 136.717 228.57 136.95 227.77 136.95C227.237 136.95 226.587 136.8 225.82 136.5C225.087 136.2 224.553 135.783 224.22 135.25C223.887 134.717 223.72 134.05 223.72 133.25C223.72 132.283 223.937 131.233 224.37 130.1C224.803 128.933 225.353 127.85 226.02 126.85C226.253 126.517 226.52 126.117 226.82 125.65C227.12 125.183 227.42 124.783 227.72 124.45C228.02 124.083 228.237 123.883 228.37 123.85C228.77 123.717 229.237 123.65 229.77 123.65C230.337 123.65 230.753 123.717 231.02 123.85C231.253 123.95 231.37 124.067 231.37 124.2C231.37 124.367 231.237 124.583 230.97 124.85C230.603 125.183 230.103 125.683 229.47 126.35C228.837 127.017 228.203 127.817 227.57 128.75C226.97 129.683 226.47 130.717 226.07 131.85C225.737 132.75 225.57 133.533 225.57 134.2C225.57 135.367 226.037 135.95 226.97 135.95C227.77 135.95 228.62 135.617 229.52 134.95C230.42 134.283 231.287 133.467 232.12 132.5C232.987 131.533 233.753 130.583 234.42 129.65C235.12 128.683 235.653 127.917 236.02 127.35C236.353 126.883 236.72 126.283 237.12 125.55C237.553 124.817 237.97 124.1 238.37 123.4C238.77 122.7 239.087 122.183 239.32 121.85C239.553 121.85 239.903 121.9 240.37 122C240.87 122.067 241.287 122.2 241.62 122.4C241.987 122.6 242.087 122.85 241.92 123.15C241.72 123.483 241.403 124 240.97 124.7C240.57 125.4 240.153 126.117 239.72 126.85C239.32 127.55 239.003 128.117 238.77 128.55C237.97 130.083 237.453 131.733 237.22 133.5C237.187 133.633 237.17 133.767 237.17 133.9C237.17 134 237.17 134.117 237.17 134.25C237.17 135.583 237.62 136.25 238.52 136.25C239.02 136.25 239.687 135.95 240.52 135.35C241.353 134.75 242.203 134.033 243.07 133.2C243.97 132.367 244.77 131.567 245.47 130.8C246.203 130 246.703 129.4 246.97 129C247.037 128.9 247.137 128.85 247.27 128.85C247.403 128.85 247.503 128.9 247.57 129C247.67 129.1 247.67 129.233 247.57 129.4C247.27 129.967 246.753 130.683 246.02 131.55C245.32 132.383 244.537 133.233 243.67 134.1C242.803 134.933 241.953 135.65 241.12 136.25C240.687 136.583 240.137 136.867 239.47 137.1C238.803 137.367 238.137 137.5 237.47 137.5ZM260.237 119.6C259.804 119.6 259.354 119.567 258.887 119.5C258.42 119.4 258.187 119.083 258.187 118.55C258.187 118.45 258.404 118.217 258.837 117.85C259.304 117.483 259.77 117.117 260.237 116.75C260.737 116.35 261.037 116.117 261.137 116.05C261.704 115.583 262.054 115.35 262.187 115.35C262.354 115.35 262.354 115.567 262.187 116C262.02 116.433 261.937 116.817 261.937 117.15C261.937 117.317 261.837 117.6 261.637 118C261.437 118.4 261.204 118.767 260.937 119.1C260.67 119.433 260.437 119.6 260.237 119.6ZM254.787 137.5C254.187 137.5 253.637 137.367 253.137 137.1C252.67 136.833 252.32 136.333 252.087 135.6C252.054 135.5 252.02 135.4 251.987 135.3C251.987 135.2 251.987 135.083 251.987 134.95C251.987 134.283 252.137 133.45 252.437 132.45C252.737 131.45 253.104 130.483 253.537 129.55C253.337 129.817 253.104 130.15 252.837 130.55C252.57 130.917 252.187 131.4 251.687 132C251.554 132.133 251.404 132.2 251.237 132.2C251.004 132.2 250.887 132.067 250.887 131.8C250.887 131.6 250.954 131.433 251.087 131.3C251.954 130.2 252.72 129.217 253.387 128.35C254.087 127.483 254.604 126.75 254.937 126.15C254.937 126.117 254.92 126.1 254.887 126.1C254.887 126.067 254.887 126.033 254.887 126C254.887 125.9 254.937 125.75 255.037 125.55C255.304 124.75 255.57 124.083 255.837 123.55C256.137 122.983 256.454 122.667 256.787 122.6C256.854 122.6 256.92 122.6 256.987 122.6C257.054 122.567 257.12 122.55 257.187 122.55C257.554 122.55 257.887 122.633 258.187 122.8C258.487 122.967 258.637 123.217 258.637 123.55C258.637 123.85 258.52 124.217 258.287 124.65C258.087 125.083 257.82 125.617 257.487 126.25C256.754 127.783 256.087 129.183 255.487 130.45C254.92 131.683 254.604 132.7 254.537 133.5C254.504 133.633 254.487 133.767 254.487 133.9C254.487 134 254.487 134.117 254.487 134.25C254.487 135.583 254.92 136.25 255.787 136.25C256.32 136.25 257.004 135.967 257.837 135.4C258.67 134.8 259.52 134.083 260.387 133.25C261.254 132.383 262.037 131.567 262.737 130.8C263.47 130 263.97 129.4 264.237 129C264.337 128.9 264.437 128.85 264.537 128.85C264.67 128.85 264.77 128.9 264.837 129C264.937 129.1 264.954 129.233 264.887 129.4C264.587 129.967 264.07 130.683 263.337 131.55C262.637 132.383 261.837 133.233 260.937 134.1C260.07 134.933 259.22 135.65 258.387 136.25C257.954 136.583 257.404 136.867 256.737 137.1C256.104 137.367 255.454 137.5 254.787 137.5ZM272.816 137.5C271.416 137.5 270.433 137.15 269.866 136.45C269.333 135.75 269.066 134.883 269.066 133.85C269.066 132.883 269.283 131.667 269.716 130.2C270.183 128.733 270.783 127.15 271.516 125.45C272.25 123.75 273.033 122.067 273.866 120.4C274.733 118.7 275.583 117.15 276.416 115.75C277.283 114.317 278.033 113.167 278.666 112.3C279.3 111.467 279.983 110.633 280.716 109.8C281.45 108.967 282.266 108.267 283.166 107.7C284.066 107.133 285.083 106.85 286.216 106.85C286.983 106.85 287.633 107.067 288.166 107.5C288.733 107.9 289.016 108.517 289.016 109.35C289.016 109.683 288.95 110.067 288.816 110.5C288.716 110.933 288.533 111.383 288.266 111.85C286.233 115.383 283.8 118.65 280.966 121.65C278.166 124.65 275.2 127.433 272.066 130C271.933 130.5 271.8 130.95 271.666 131.35C271.566 131.75 271.483 132.067 271.416 132.3C271.383 132.467 271.366 132.65 271.366 132.85C271.366 133.017 271.366 133.183 271.366 133.35C271.366 134.15 271.5 134.85 271.766 135.45C272.033 136.05 272.483 136.35 273.116 136.35C273.716 136.35 274.45 136.067 275.316 135.5C276.216 134.9 277.116 134.183 278.016 133.35C278.916 132.483 279.733 131.65 280.466 130.85C281.2 130.05 281.716 129.433 282.016 129C282.116 128.9 282.216 128.85 282.316 128.85C282.45 128.85 282.55 128.917 282.616 129.05C282.716 129.183 282.716 129.35 282.616 129.55C282.283 130.117 281.75 130.817 281.016 131.65C280.283 132.483 279.466 133.333 278.566 134.2C277.666 135.033 276.8 135.767 275.966 136.4C274.933 137.133 273.883 137.5 272.816 137.5ZM272.766 128C274.033 127.133 275.35 126.017 276.716 124.65C278.083 123.25 279.416 121.733 280.716 120.1C282.05 118.467 283.25 116.85 284.316 115.25C285.416 113.65 286.3 112.2 286.966 110.9C287.166 110.533 287.3 110.217 287.366 109.95C287.466 109.65 287.516 109.383 287.516 109.15C287.516 108.517 287.25 108.2 286.716 108.2C286.25 108.2 285.666 108.45 284.966 108.95C283.166 110.35 281.5 112.15 279.966 114.35C278.433 116.517 277.066 118.8 275.866 121.2C274.666 123.6 273.633 125.867 272.766 128ZM300.735 142.45C299.868 142.317 299.252 141.9 298.885 141.2C298.518 140.5 298.335 139.633 298.335 138.6C298.335 137.367 298.502 136.033 298.835 134.6C299.202 133.167 299.618 131.817 300.085 130.55C300.552 129.283 300.918 128.317 301.185 127.65C300.418 128.55 299.535 129.533 298.535 130.6C297.568 131.667 296.552 132.683 295.485 133.65C294.418 134.617 293.385 135.417 292.385 136.05C291.418 136.65 290.568 136.95 289.835 136.95C289.302 136.95 288.735 136.8 288.135 136.5C287.535 136.167 287.052 135.75 286.685 135.25C286.185 134.583 285.935 133.9 285.935 133.2C285.935 132.3 286.235 131.367 286.835 130.4C287.468 129.433 288.268 128.5 289.235 127.6C290.235 126.667 291.285 125.833 292.385 125.1C293.518 124.333 294.585 123.7 295.585 123.2C296.618 122.667 297.452 122.317 298.085 122.15C298.418 122.083 298.768 122.017 299.135 121.95C299.502 121.883 299.885 121.85 300.285 121.85C300.785 121.85 301.285 121.917 301.785 122.05C302.285 122.15 302.702 122.333 303.035 122.6L303.235 122.75C304.035 120.917 304.918 119.067 305.885 117.2C306.852 115.3 307.885 113.567 308.985 112C310.085 110.433 311.252 109.183 312.485 108.25C313.718 107.283 315.002 106.8 316.335 106.8C316.502 106.8 316.668 106.817 316.835 106.85C317.002 106.85 317.152 106.867 317.285 106.9C318.118 107.067 318.702 107.367 319.035 107.8C319.402 108.2 319.585 108.683 319.585 109.25C319.585 109.65 319.502 110.083 319.335 110.55C319.202 110.983 319.002 111.417 318.735 111.85C318.002 113.15 317.035 114.433 315.835 115.7C314.668 116.967 313.385 118.2 311.985 119.4C310.585 120.567 309.185 121.7 307.785 122.8C306.418 123.9 305.168 124.933 304.035 125.9C303.535 127.067 303.035 128.433 302.535 130C302.035 131.567 301.618 132.9 301.285 134C301.085 134.8 300.918 135.55 300.785 136.25C300.685 136.95 300.635 137.6 300.635 138.2C300.635 139.3 300.835 140.2 301.235 140.9C301.568 141.433 301.985 141.7 302.485 141.7C302.852 141.7 303.185 141.567 303.485 141.3C303.618 141.233 303.735 141.15 303.835 141.05C303.968 140.95 304.118 140.85 304.285 140.75C304.485 140.65 304.652 140.6 304.785 140.6C305.018 140.6 305.035 140.783 304.835 141.15C304.735 141.25 304.618 141.367 304.485 141.5C304.352 141.667 304.202 141.833 304.035 142C303.802 142.167 303.452 142.3 302.985 142.4C302.518 142.5 302.052 142.55 301.585 142.55C301.452 142.55 301.302 142.533 301.135 142.5C301.002 142.5 300.868 142.483 300.735 142.45ZM305.535 123.05C306.868 122.15 308.318 121.033 309.885 119.7C311.452 118.333 312.918 116.883 314.285 115.35C315.652 113.783 316.702 112.3 317.435 110.9C317.868 110.1 318.085 109.467 318.085 109C318.085 108.433 317.835 108.15 317.335 108.15C316.868 108.15 316.252 108.417 315.485 108.95C313.252 110.683 311.368 112.75 309.835 115.15C308.302 117.517 306.868 120.15 305.535 123.05ZM288.435 135.75C288.602 135.95 288.818 136.05 289.085 136.05C289.585 136.05 290.168 135.833 290.835 135.4C291.535 134.967 292.002 134.633 292.235 134.4C293.935 133.033 295.635 131.567 297.335 130C299.068 128.4 300.685 126.8 302.185 125.2C302.318 124.9 302.435 124.617 302.535 124.35C302.635 124.05 302.752 123.767 302.885 123.5C302.385 123.3 301.802 123.2 301.135 123.2C299.802 123.2 298.335 123.633 296.735 124.5C295.135 125.367 293.702 126.383 292.435 127.55C292.035 127.883 291.485 128.467 290.785 129.3C290.118 130.1 289.502 130.983 288.935 131.95C288.368 132.917 288.085 133.8 288.085 134.6C288.085 135.033 288.202 135.417 288.435 135.75ZM324.135 119.6C323.702 119.6 323.252 119.567 322.785 119.5C322.319 119.4 322.085 119.083 322.085 118.55C322.085 118.45 322.302 118.217 322.735 117.85C323.202 117.483 323.669 117.117 324.135 116.75C324.635 116.35 324.935 116.117 325.035 116.05C325.602 115.583 325.952 115.35 326.085 115.35C326.252 115.35 326.252 115.567 326.085 116C325.919 116.433 325.835 116.817 325.835 117.15C325.835 117.317 325.735 117.6 325.535 118C325.335 118.4 325.102 118.767 324.835 119.1C324.569 119.433 324.335 119.6 324.135 119.6ZM318.685 137.5C318.085 137.5 317.535 137.367 317.035 137.1C316.569 136.833 316.219 136.333 315.985 135.6C315.952 135.5 315.919 135.4 315.885 135.3C315.885 135.2 315.885 135.083 315.885 134.95C315.885 134.283 316.035 133.45 316.335 132.45C316.635 131.45 317.002 130.483 317.435 129.55C317.235 129.817 317.002 130.15 316.735 130.55C316.469 130.917 316.085 131.4 315.585 132C315.452 132.133 315.302 132.2 315.135 132.2C314.902 132.2 314.785 132.067 314.785 131.8C314.785 131.6 314.852 131.433 314.985 131.3C315.852 130.2 316.619 129.217 317.285 128.35C317.985 127.483 318.502 126.75 318.835 126.15C318.835 126.117 318.819 126.1 318.785 126.1C318.785 126.067 318.785 126.033 318.785 126C318.785 125.9 318.835 125.75 318.935 125.55C319.202 124.75 319.469 124.083 319.735 123.55C320.035 122.983 320.352 122.667 320.685 122.6C320.752 122.6 320.819 122.6 320.885 122.6C320.952 122.567 321.019 122.55 321.085 122.55C321.452 122.55 321.785 122.633 322.085 122.8C322.385 122.967 322.535 123.217 322.535 123.55C322.535 123.85 322.419 124.217 322.185 124.65C321.985 125.083 321.719 125.617 321.385 126.25C320.652 127.783 319.985 129.183 319.385 130.45C318.819 131.683 318.502 132.7 318.435 133.5C318.402 133.633 318.385 133.767 318.385 133.9C318.385 134 318.385 134.117 318.385 134.25C318.385 135.583 318.819 136.25 319.685 136.25C320.219 136.25 320.902 135.967 321.735 135.4C322.569 134.8 323.419 134.083 324.285 133.25C325.152 132.383 325.935 131.567 326.635 130.8C327.369 130 327.869 129.4 328.135 129C328.235 128.9 328.335 128.85 328.435 128.85C328.569 128.85 328.669 128.9 328.735 129C328.835 129.1 328.852 129.233 328.785 129.4C328.485 129.967 327.969 130.683 327.235 131.55C326.535 132.383 325.735 133.233 324.835 134.1C323.969 134.933 323.119 135.65 322.285 136.25C321.852 136.583 321.302 136.867 320.635 137.1C320.002 137.367 319.352 137.5 318.685 137.5ZM331.415 137.65C331.181 137.65 331.115 137.533 331.215 137.3C331.315 137.1 331.498 136.65 331.765 135.95C332.031 135.217 332.331 134.35 332.665 133.35C333.031 132.35 333.398 131.317 333.765 130.25C334.131 129.183 334.465 128.183 334.765 127.25C335.098 126.317 335.365 125.583 335.565 125.05C335.631 124.85 335.698 124.567 335.765 124.2C335.831 123.8 335.965 123.45 336.165 123.15C336.398 122.817 336.781 122.65 337.315 122.65C338.315 122.65 338.815 122.883 338.815 123.35C338.815 123.517 338.731 123.8 338.565 124.2C338.165 125.1 337.731 126.133 337.265 127.3C336.798 128.467 336.381 129.567 336.015 130.6C335.648 131.633 335.365 132.433 335.165 133C335.498 132.533 336.031 131.867 336.765 131C337.531 130.133 338.381 129.2 339.315 128.2C340.248 127.2 341.215 126.233 342.215 125.3C343.248 124.367 344.198 123.617 345.065 123.05C345.965 122.45 346.731 122.15 347.365 122.15C348.165 122.15 348.565 122.583 348.565 123.45C348.565 123.75 348.481 124.2 348.315 124.8C348.015 125.633 347.631 126.45 347.165 127.25C346.698 128.017 346.281 128.833 345.915 129.7C345.281 131.267 344.915 132.533 344.815 133.5C344.781 133.633 344.765 133.767 344.765 133.9C344.765 134 344.765 134.117 344.765 134.25C344.765 135.583 345.215 136.25 346.115 136.25C346.615 136.25 347.281 135.95 348.115 135.35C348.948 134.75 349.798 134.033 350.665 133.2C351.565 132.367 352.365 131.567 353.065 130.8C353.765 130 354.248 129.4 354.515 129C354.615 128.9 354.715 128.85 354.815 128.85C354.948 128.85 355.048 128.9 355.115 129C355.215 129.1 355.231 129.233 355.165 129.4C354.865 129.967 354.348 130.683 353.615 131.55C352.915 132.383 352.131 133.233 351.265 134.1C350.398 134.933 349.548 135.65 348.715 136.25C348.215 136.583 347.598 136.883 346.865 137.15C346.131 137.417 345.398 137.533 344.665 137.5C343.731 137.4 343.065 137.083 342.665 136.55C342.265 135.983 342.065 135.317 342.065 134.55C342.065 133.65 342.231 132.7 342.565 131.7C342.931 130.667 343.331 129.7 343.765 128.8C344.198 127.9 344.548 127.217 344.815 126.75C345.081 126.217 345.215 125.8 345.215 125.5C345.215 125.233 345.098 125.1 344.865 125.1C344.631 125.1 344.281 125.25 343.815 125.55C343.348 125.85 342.715 126.367 341.915 127.1C341.181 127.733 340.398 128.567 339.565 129.6C338.731 130.6 337.915 131.633 337.115 132.7C336.348 133.767 335.665 134.683 335.065 135.45C334.498 136.217 334.098 136.667 333.865 136.8C333.698 136.9 333.315 137.067 332.715 137.3C332.148 137.533 331.715 137.65 331.415 137.65ZM357.629 155.35C357.229 155.25 356.879 155.15 356.579 155.05C355.946 154.717 355.496 154.333 355.229 153.9C354.963 153.5 354.829 153.067 354.829 152.6C354.829 151.833 355.096 151 355.629 150.1C356.129 149.233 356.796 148.333 357.629 147.4C358.463 146.4 359.513 145.383 360.779 144.35C362.079 143.317 363.429 142.317 364.829 141.35C366.229 140.417 367.463 139.6 368.529 138.9C369.696 136.533 370.729 134.3 371.629 132.2C372.529 130.067 373.163 128.433 373.529 127.3C372.829 128.067 372.079 128.933 371.279 129.9C370.479 130.833 369.896 131.517 369.529 131.95C368.896 132.617 368.179 133.35 367.379 134.15C366.579 134.917 365.729 135.583 364.829 136.15C363.963 136.683 363.113 136.95 362.279 136.95C361.746 136.95 361.179 136.8 360.579 136.5C359.979 136.167 359.496 135.75 359.129 135.25C358.629 134.583 358.379 133.9 358.379 133.2C358.379 132.3 358.679 131.367 359.279 130.4C359.913 129.433 360.713 128.5 361.679 127.6C362.679 126.667 363.729 125.833 364.829 125.1C365.963 124.333 367.029 123.7 368.029 123.2C369.063 122.667 369.896 122.317 370.529 122.15C371.129 121.95 371.863 121.85 372.729 121.85C373.129 121.85 373.613 121.917 374.179 122.05C374.746 122.183 375.246 122.4 375.679 122.7C376.146 122.967 376.379 123.367 376.379 123.9C376.379 124.167 376.246 124.25 375.979 124.15C375.746 123.75 375.396 123.5 374.929 123.4C374.496 123.267 374.046 123.2 373.579 123.2C372.279 123.2 370.813 123.633 369.179 124.5C367.579 125.367 366.146 126.383 364.879 127.55C364.479 127.883 363.929 128.467 363.229 129.3C362.529 130.1 361.896 130.983 361.329 131.95C360.796 132.917 360.529 133.8 360.529 134.6C360.529 135.033 360.646 135.417 360.879 135.75C360.979 135.917 361.179 136 361.479 136C362.113 136 362.879 135.717 363.779 135.15C364.713 134.583 365.696 133.867 366.729 133C367.763 132.133 368.763 131.217 369.729 130.25C370.729 129.25 371.613 128.333 372.379 127.5C373.146 126.667 373.713 126.033 374.079 125.6C374.146 125.433 374.263 125.317 374.429 125.25C374.596 125.183 374.779 125.15 374.979 125.15C375.513 125.15 376.063 125.3 376.629 125.6C377.229 125.867 377.479 126.1 377.379 126.3C376.746 127.667 375.996 129.25 375.129 131.05C374.296 132.85 373.413 134.733 372.479 136.7C372.913 136.467 373.629 135.95 374.629 135.15C375.629 134.35 376.729 133.4 377.929 132.3C379.129 131.167 380.246 130 381.279 128.8C381.679 128.367 381.979 128.15 382.179 128.15C382.379 128.15 382.429 128.333 382.329 128.7C382.229 129.033 381.963 129.467 381.529 130C380.996 130.633 380.263 131.4 379.329 132.3C378.396 133.167 377.413 134.067 376.379 135C375.346 135.9 374.379 136.7 373.479 137.4C372.613 138.133 371.929 138.633 371.429 138.9C370.396 141.1 369.396 143.167 368.429 145.1C367.463 147.067 366.579 148.65 365.779 149.85C365.246 150.683 364.596 151.533 363.829 152.4C363.063 153.267 362.229 153.983 361.329 154.55C360.429 155.15 359.479 155.45 358.479 155.45C358.346 155.45 358.213 155.433 358.079 155.4C357.946 155.4 357.796 155.383 357.629 155.35ZM357.129 154.05C357.329 154.183 357.613 154.183 357.979 154.05C358.379 153.917 358.879 153.617 359.479 153.15C360.779 152.117 361.896 150.9 362.829 149.5C363.763 148.133 364.613 146.683 365.379 145.15C366.146 143.65 366.879 142.2 367.579 140.8C366.279 141.767 364.813 142.9 363.179 144.2C361.546 145.533 360.063 146.85 358.729 148.15C358.063 148.817 357.513 149.55 357.079 150.35C356.613 151.183 356.379 151.933 356.379 152.6C356.379 153.3 356.629 153.783 357.129 154.05ZM411.969 139.3C410.236 139.3 408.636 139 407.169 138.4C405.736 137.833 404.586 136.95 403.719 135.75C402.886 134.517 402.469 132.95 402.469 131.05C402.469 129.983 402.619 128.833 402.919 127.6C403.386 125.633 404.152 123.667 405.219 121.7C406.319 119.733 407.619 117.883 409.119 116.15C410.652 114.417 412.319 112.883 414.119 111.55C415.919 110.183 417.769 109.117 419.669 108.35C421.602 107.55 423.519 107.15 425.419 107.15C425.986 107.15 426.569 107.2 427.169 107.3C428.502 107.533 429.486 108.033 430.119 108.8C430.786 109.533 431.119 110.383 431.119 111.35C431.119 112.483 430.752 113.617 430.019 114.75C429.286 115.883 428.319 116.967 427.119 118C425.952 119 424.669 119.9 423.269 120.7C421.902 121.5 420.552 122.15 419.219 122.65C417.886 123.15 416.702 123.433 415.669 123.5C415.036 123.533 414.719 123.35 414.719 122.95C414.719 122.75 414.819 122.55 415.019 122.35C415.252 122.117 415.569 121.983 415.969 121.95C418.569 121.717 420.986 120.933 423.219 119.6C425.486 118.233 427.219 116.383 428.419 114.05C428.686 113.55 428.886 113.05 429.019 112.55C429.186 112.017 429.269 111.517 429.269 111.05C429.269 110.317 429.052 109.7 428.619 109.2C428.219 108.667 427.502 108.4 426.469 108.4C425.336 108.4 424.002 108.75 422.469 109.45C420.936 110.117 419.319 111.067 417.619 112.3C415.952 113.533 414.302 115 412.669 116.7C411.069 118.367 409.619 120.2 408.319 122.2C407.052 124.167 406.069 126.25 405.369 128.45C404.936 129.783 404.719 131.017 404.719 132.15C404.719 134.183 405.419 135.683 406.819 136.65C408.219 137.583 410.036 138.05 412.269 138.05C414.202 138.05 416.319 137.717 418.619 137.05C420.952 136.383 423.219 135.367 425.419 134C427.619 132.6 429.469 130.833 430.969 128.7C431.069 128.567 431.186 128.5 431.319 128.5C431.452 128.5 431.569 128.567 431.669 128.7C431.802 128.833 431.819 128.967 431.719 129.1C429.986 131.5 427.986 133.45 425.719 134.95C423.486 136.45 421.169 137.55 418.769 138.25C416.369 138.95 414.102 139.3 411.969 139.3ZM450.078 137.5C449.511 137.5 448.978 137.367 448.478 137.1C448.011 136.833 447.661 136.333 447.428 135.6C447.328 135.3 447.278 134.883 447.278 134.35C447.278 133.617 447.378 132.8 447.578 131.9C447.778 131 447.995 130.233 448.228 129.6C448.061 129.667 447.745 129.967 447.278 130.5C446.845 131 446.295 131.617 445.628 132.35C444.995 133.05 444.278 133.767 443.478 134.5C442.711 135.2 441.911 135.783 441.078 136.25C440.245 136.717 439.428 136.95 438.628 136.95C438.095 136.95 437.528 136.8 436.928 136.5C436.328 136.167 435.845 135.75 435.478 135.25C434.978 134.583 434.728 133.9 434.728 133.2C434.728 132.3 435.028 131.367 435.628 130.4C436.261 129.433 437.061 128.5 438.028 127.6C439.028 126.667 440.078 125.833 441.178 125.1C442.311 124.333 443.378 123.7 444.378 123.2C445.411 122.667 446.245 122.317 446.878 122.15C447.545 121.95 448.295 121.85 449.128 121.85C449.595 121.85 450.078 121.917 450.578 122.05C451.078 122.15 451.495 122.333 451.828 122.6C452.095 122.733 452.311 122.917 452.478 123.15C452.645 123.383 452.728 123.633 452.728 123.9C452.728 124.167 452.611 124.25 452.378 124.15C452.111 123.75 451.745 123.5 451.278 123.4C450.845 123.267 450.395 123.2 449.928 123.2C448.595 123.2 447.128 123.633 445.528 124.5C443.928 125.367 442.495 126.383 441.228 127.55C440.828 127.883 440.278 128.467 439.578 129.3C438.911 130.1 438.295 130.983 437.728 131.95C437.161 132.917 436.878 133.8 436.878 134.6C436.878 135.033 436.995 135.417 437.228 135.75C437.361 135.983 437.578 136.1 437.878 136.1C438.345 136.1 438.961 135.85 439.728 135.35C440.528 134.85 441.345 134.25 442.178 133.55C443.011 132.817 443.761 132.117 444.428 131.45C445.128 130.783 445.628 130.3 445.928 130C446.095 129.833 446.411 129.5 446.878 129C447.378 128.467 447.911 127.9 448.478 127.3C449.045 126.7 449.545 126.183 449.978 125.75C450.445 125.317 450.745 125.1 450.878 125.1C451.045 125.1 451.311 125.15 451.678 125.25C452.078 125.317 452.411 125.433 452.678 125.6C452.945 125.767 452.995 125.983 452.828 126.25C451.961 127.517 451.261 128.85 450.728 130.25C450.228 131.617 449.928 132.7 449.828 133.5C449.795 133.633 449.778 133.767 449.778 133.9C449.778 134 449.778 134.117 449.778 134.25C449.778 135.583 450.245 136.25 451.178 136.25C451.678 136.25 452.345 135.95 453.178 135.35C454.011 134.75 454.861 134.033 455.728 133.2C456.595 132.367 457.378 131.567 458.078 130.8C458.811 130 459.311 129.4 459.578 129C459.678 128.9 459.778 128.85 459.878 128.85C460.011 128.85 460.128 128.917 460.228 129.05C460.328 129.15 460.328 129.283 460.228 129.45C459.861 130.05 459.328 130.767 458.628 131.6C457.928 132.433 457.145 133.267 456.278 134.1C455.411 134.933 454.561 135.65 453.728 136.25C453.295 136.583 452.745 136.867 452.078 137.1C451.411 137.367 450.745 137.5 450.078 137.5ZM465.334 139.5C464.968 139.5 464.601 139.45 464.234 139.35C463.868 139.25 463.601 139.05 463.434 138.75C463.301 138.483 463.318 138.15 463.484 137.75C463.651 137.383 463.884 137.05 464.184 136.75C464.451 136.483 464.784 136.217 465.184 135.95C465.618 135.683 466.068 135.467 466.534 135.3H466.634C466.801 135.3 466.884 135.367 466.884 135.5C466.884 135.6 466.818 135.7 466.684 135.8C466.084 136.1 465.618 136.467 465.284 136.9C465.051 137.167 464.934 137.45 464.934 137.75C464.934 138.283 465.251 138.55 465.884 138.55C466.584 138.55 467.334 138.333 468.134 137.9C468.968 137.5 469.751 136.967 470.484 136.3C471.251 135.6 471.868 134.867 472.334 134.1C472.801 133.333 473.034 132.6 473.034 131.9C473.034 131.433 472.784 131.017 472.284 130.65C471.784 130.25 471.234 129.9 470.634 129.6C470.034 129.267 469.584 129 469.284 128.8C468.918 128.533 468.584 128.267 468.284 128C467.984 127.7 467.751 127.383 467.584 127.05C467.318 127.517 466.968 128.083 466.534 128.75C466.134 129.383 465.651 130.05 465.084 130.75C464.884 130.95 464.684 131.05 464.484 131.05C464.284 131.05 464.184 130.967 464.184 130.8C464.184 130.7 464.268 130.533 464.434 130.3C465.334 129.233 466.001 128.25 466.434 127.35C466.868 126.45 467.168 125.767 467.334 125.3C467.468 124.333 467.918 123.417 468.684 122.55C469.451 121.683 470.384 120.933 471.484 120.3C472.584 119.633 473.701 119.117 474.834 118.75C476.001 118.383 477.034 118.2 477.934 118.2C478.834 118.2 479.634 118.367 480.334 118.7C481.034 119.033 481.384 119.567 481.384 120.3C481.384 120.7 481.268 121.133 481.034 121.6C480.734 122.233 480.234 122.8 479.534 123.3C479.501 123.333 479.451 123.35 479.384 123.35C479.118 123.35 478.984 123.233 478.984 123C478.984 122.833 479.068 122.667 479.234 122.5C479.501 122.267 479.718 121.983 479.884 121.65C480.051 121.317 480.134 121 480.134 120.7C480.134 120.1 479.784 119.8 479.084 119.8C478.584 119.8 478.001 119.9 477.334 120.1C476.668 120.267 476.018 120.483 475.384 120.75C474.784 120.983 474.284 121.2 473.884 121.4C473.051 121.8 472.284 122.3 471.584 122.9C470.884 123.467 470.218 124.183 469.584 125.05C469.151 125.617 468.934 126.15 468.934 126.65C468.934 127.25 469.334 127.8 470.134 128.3C470.968 128.767 471.784 129.217 472.584 129.65C473.418 130.083 474.118 130.55 474.684 131.05C475.251 131.55 475.534 132.15 475.534 132.85C475.534 133.617 475.051 134.533 474.084 135.6C473.484 136.267 472.668 136.9 471.634 137.5C470.634 138.1 469.568 138.583 468.434 138.95C467.301 139.317 466.268 139.5 465.334 139.5ZM490.129 137.75C488.629 137.75 487.329 137.4 486.229 136.7C485.129 136 484.579 134.933 484.579 133.5C484.579 132.733 484.812 131.8 485.279 130.7C485.612 129.933 486.229 129.05 487.129 128.05C488.029 127.05 489.079 126.083 490.279 125.15C491.479 124.183 492.696 123.4 493.929 122.8C495.162 122.167 496.279 121.85 497.279 121.85C497.646 121.85 497.979 121.9 498.279 122C498.846 122.2 499.229 122.517 499.429 122.95C499.662 123.383 499.779 123.833 499.779 124.3C499.779 124.733 499.712 125.15 499.579 125.55C499.446 125.95 499.279 126.3 499.079 126.6C498.479 127.5 497.612 128.3 496.479 129C495.379 129.7 494.246 130.25 493.079 130.65C491.946 131.05 491.012 131.283 490.279 131.35H490.179C489.746 131.35 489.529 131.217 489.529 130.95C489.529 130.783 489.662 130.7 489.929 130.7C490.729 130.633 491.729 130.267 492.929 129.6C494.162 128.9 495.246 128.183 496.179 127.45C496.579 127.117 497.046 126.65 497.579 126.05C498.146 125.45 498.429 124.867 498.429 124.3C498.429 123.7 498.146 123.4 497.579 123.4C497.279 123.4 496.962 123.467 496.629 123.6C496.329 123.733 496.079 123.833 495.879 123.9C494.912 124.367 493.846 125.1 492.679 126.1C491.512 127.067 490.446 128.167 489.479 129.4C488.546 130.6 487.896 131.817 487.529 133.05C487.429 133.317 487.362 133.583 487.329 133.85C487.296 134.083 487.279 134.317 487.279 134.55C487.279 135.35 487.529 135.917 488.029 136.25C488.562 136.583 489.196 136.75 489.929 136.75C491.029 136.75 492.162 136.517 493.329 136.05C494.496 135.55 495.629 134.917 496.729 134.15C497.829 133.383 498.829 132.567 499.729 131.7C500.662 130.8 501.446 129.933 502.079 129.1C502.179 128.967 502.296 128.9 502.429 128.9C502.562 128.867 502.646 128.883 502.679 128.95C502.812 128.983 502.879 129.083 502.879 129.25C502.879 129.383 502.846 129.517 502.779 129.65C501.846 130.95 500.712 132.217 499.379 133.45C498.079 134.683 496.629 135.717 495.029 136.55C493.462 137.35 491.829 137.75 490.129 137.75Z" fill="#A17711"/>
</svg>
