<svg width="542" height="157" viewBox="0 0 542 157" fill="none" xmlns="http://www.w3.org/2000/svg">
<path d="M38 53L113 4" stroke="#0E6EB8" stroke-width="8" stroke-linecap="round"/>
<path d="M38 53V149" stroke="#0E6EB8" stroke-width="8" stroke-linecap="round"/>
<path d="M38 84L4 105" stroke="#0E6EB8" stroke-width="8" stroke-linecap="round"/>
<path d="M4 149L4 105" stroke="#0E6EB8" stroke-width="8" stroke-linecap="round"/>
<path d="M4 149H38" stroke="#0E6EB8" stroke-width="8" stroke-linecap="round"/>
<path d="M38 84L70 107" stroke="#0E6EB8" stroke-width="8" stroke-linecap="round"/>
<path d="M70 149L70 107" stroke="#0E6EB8" stroke-width="8" stroke-linecap="round"/>
<path d="M70 149H86" stroke="#0E6EB8" stroke-width="8" stroke-linecap="round"/>
<path d="M86 96V149" stroke="#0E6EB8" stroke-width="8" stroke-linecap="round"/>
<path d="M86 96L113 73" stroke="#0E6EB8" stroke-width="8" stroke-linecap="round"/>
<path d="M159 73L113 73" stroke="#0E6EB8" stroke-width="8" stroke-linecap="round"/>
<path d="M159 73V101" stroke="#0E6EB8" stroke-width="8" stroke-linecap="round"/>
<path d="M115 101L159 101" stroke="#0E6EB8" stroke-width="8" stroke-linecap="round"/>
<path d="M115 101L157 149" stroke="#0E6EB8" stroke-width="8" stroke-linecap="round"/>
<path d="M115 149L113 4.00005" stroke="#0E6EB8" stroke-width="8" stroke-linecap="round"/>
<path d="M182.085 56.245H211.335V59.575H182.085V56.245ZM184.695 68.35H208.32V71.5H184.695V68.35ZM182.715 74.425H210.345V77.845H182.715V74.425ZM194.055 47.38H198.195V82.12H194.055V47.38ZM185.235 50.35H207.915V65.605H184.965V62.275H203.775V53.635H185.235V50.35ZM169.665 49.72H179.295V53.5H169.665V49.72ZM177.81 49.72H178.35L179.025 49.54L181.905 50.395C179.88 55.39 176.595 62.365 173.895 67.855L170.07 66.82C172.815 61.42 176.19 54.085 177.81 50.215V49.72ZM173.985 62.5H181.005V66.28H173.67L173.985 62.5ZM179.295 62.5H180.105L180.87 62.41L183.345 62.995C182.085 76.315 178.35 84.64 172.5 88.915C171.87 88.105 170.205 86.575 169.305 86.035C174.93 82.165 178.26 74.875 179.295 63.31V62.5ZM174.165 69.43C177.81 81.535 186.135 83.56 197.205 83.605C199.455 83.605 208.95 83.605 211.74 83.515C211.065 84.46 210.3 86.44 210.03 87.655H197.115C184.065 87.655 175.29 84.955 170.835 70.645L174.165 69.43ZM236.67 47.02L240.54 47.785C238.875 55.21 235.905 62.185 232.17 66.685C231.495 66.01 229.83 64.795 228.93 64.255C232.62 60.25 235.23 53.77 236.67 47.02ZM252.015 54.355H256.065C256.065 54.355 256.02 55.84 255.975 56.38C255.03 76.765 254.13 83.965 252.375 86.215C251.385 87.565 250.485 88.015 249.045 88.24C247.83 88.42 245.895 88.42 243.915 88.285C243.825 87.07 243.42 85.27 242.745 84.1C244.59 84.28 246.3 84.325 247.155 84.325C247.875 84.325 248.28 84.145 248.82 83.515C250.215 81.895 251.16 74.785 252.015 55.3V54.355ZM237.075 54.355H253.77V58.315H235.185L237.075 54.355ZM241.035 55.615L244.185 57.19C242.295 65.065 238.155 74.02 233.16 78.52C232.305 77.71 230.955 76.72 229.83 76.09C235.095 71.95 239.235 63.355 241.035 55.615ZM247.38 55.975L250.755 57.55C248.505 69.475 243.6 81.805 236.085 87.925C235.275 87.07 233.745 85.99 232.575 85.405C240.405 79.78 245.265 67.765 247.38 55.975ZM214.395 71.815C218.715 70.78 225.195 68.89 231.36 67.09L231.9 70.825C226.23 72.625 220.11 74.515 215.475 75.91L214.395 71.815ZM222.675 47.065H226.59V88.78H222.675V47.065ZM216.915 49.63L220.56 50.215C219.93 56.2 218.805 62.365 217.14 66.37C216.51 65.875 214.89 64.885 214.035 64.48C215.61 60.745 216.465 55.075 216.915 49.63ZM217.635 56.02H230.865V60.115H216.87L217.635 56.02ZM278.16 47.02H282.48V84.415C282.48 86.755 281.85 87.7 280.32 88.33C278.745 88.87 276.36 88.915 272.58 88.915C272.355 87.925 271.68 86.395 271.14 85.495C273.57 85.585 276.27 85.54 277.035 85.54C277.89 85.495 278.16 85.225 278.16 84.415V47.02ZM260.88 50.35H300.165V53.77H260.88V50.35ZM269.61 58.9V61.645H291.345V58.9H269.61ZM265.56 56.065H295.71V64.48H265.56V56.065ZM264.345 67.135H296.43V84.055H292.11V70.15H264.345V67.135ZM259.935 72.76H301.11V76.045H259.935V72.76ZM263.94 78.88H294.405V82.075H263.94V78.88ZM316.86 49.18H333.06V52.96H316.86V49.18ZM321.315 58.675H329.505V62.41H320.145L321.315 58.675ZM318.66 69.835L320.46 66.64C322.665 68.08 325.32 70.195 326.535 71.59L324.645 75.19C323.43 73.66 320.82 71.41 318.66 69.835ZM333.06 52.195H336.885V78.34H333.06V52.195ZM341.025 47.83H344.985V83.74C344.985 86.215 344.445 87.34 343.005 88.015C341.52 88.735 339.18 88.825 335.625 88.825C335.445 87.745 334.86 85.855 334.275 84.685C336.885 84.775 339.225 84.775 340.035 84.73C340.755 84.685 341.025 84.505 341.025 83.74V47.83ZM320.775 50.53L324.87 51.07C323.61 59.08 321.315 68.71 316.365 74.47C315.78 73.615 314.61 72.22 313.8 71.5C318.12 66.325 320.01 57.415 320.775 50.53ZM327.93 58.675H328.695L329.37 58.54L331.845 59.305C330.135 73.975 325.275 83.875 318.345 88.87C317.76 87.88 316.455 86.26 315.6 85.63C322.17 81.13 326.535 72.355 327.93 59.53V58.675ZM312.99 47.155L316.95 48.325C314.385 56.11 310.29 64.255 305.79 69.52C305.43 68.53 304.35 66.145 303.675 65.065C307.455 60.655 310.92 53.905 312.99 47.155ZM309.39 58.81L313.215 54.985L313.305 55.075V88.78H309.39V58.81ZM372.165 56.65H383.955V59.845H372.165V56.65ZM371.85 63.58H384.45V66.82H371.85V63.58ZM376.305 53.185H379.68V65.47H376.305V53.185ZM368.43 48.82H387.645V52.465H368.43V48.82ZM374.055 69.745H383.775V81.535H374.055V78.385H380.625V72.895H374.055V69.745ZM372.345 69.745H375.45V83.245H372.345V69.745ZM386.115 48.82H390.03V83.785C390.03 86.035 389.625 87.295 388.23 88.015C386.88 88.69 384.63 88.78 381.345 88.78C381.165 87.655 380.67 85.72 380.085 84.595C382.335 84.685 384.54 84.64 385.26 84.64C385.89 84.64 386.115 84.46 386.115 83.74V48.82ZM366.315 48.82H370.185V65.29C370.185 72.355 369.69 82.48 366.045 89.05C365.325 88.375 363.615 87.16 362.715 86.755C366.09 80.635 366.315 71.86 366.315 65.29V48.82ZM351.375 60.745H363.12V64.03H351.375V60.745ZM351.69 48.55H363.03V51.835H351.69V48.55ZM351.375 66.82H363.12V70.105H351.375V66.82ZM349.53 54.49H364.29V57.955H349.53V54.49ZM353.355 72.94H363.075V86.26H353.355V82.84H359.61V76.36H353.355V72.94ZM351.285 72.94H354.705V88.285H351.285V72.94ZM395.25 84.145H435.795V87.925H395.25V84.145ZM404.835 72.715H426.12V75.73H404.835V72.715ZM404.835 78.385H426.12V81.445H404.835V78.385ZM402.765 66.595H428.28V86.215H423.915V70.105H406.95V86.395H402.765V66.595ZM395.475 52.465H435.57V56.155H395.475V52.465ZM413.205 47.02H417.435V65.245H413.205V47.02ZM411.045 53.635L414.51 54.985C410.55 60.88 403.71 66.055 397.05 68.665C396.42 67.72 395.25 66.19 394.35 65.38C400.785 63.22 407.58 58.54 411.045 53.635ZM419.46 53.68C422.97 58.495 429.9 62.95 436.56 64.975C435.615 65.785 434.4 67.36 433.77 68.44C426.975 65.92 420.09 60.79 416.085 55.03L419.46 53.68ZM447.045 77.53H470.715V80.635H447.045V77.53ZM440.43 70.51H480.615V73.885H440.43V70.51ZM454.155 67.36L458.34 68.035C455.55 73.66 450.42 78.34 441.69 81.445C441.195 80.5 440.07 79.06 439.215 78.43C447.405 75.91 452.13 71.725 454.155 67.36ZM469.185 71.59C471.75 74.605 476.97 77.35 481.92 78.52C481.02 79.33 479.805 80.905 479.22 81.94C474.09 80.275 468.825 76.765 465.855 72.85L469.185 71.59ZM469.23 77.53H473.28C473.28 77.53 473.235 78.52 473.19 79.06C472.695 84.1 472.155 86.395 471.165 87.43C470.355 88.195 469.455 88.42 468.15 88.51C467.07 88.6 464.955 88.6 462.75 88.555C462.66 87.475 462.255 86.035 461.715 85.135C463.695 85.315 465.585 85.36 466.395 85.36C467.07 85.36 467.475 85.27 467.835 84.955C468.465 84.37 468.87 82.525 469.23 78.025V77.53ZM457.395 74.65H461.49C460.41 82.255 457.575 86.755 446.145 89.005C445.785 88.015 444.795 86.53 444.075 85.765C454.38 84.01 456.54 80.59 457.395 74.65ZM441.015 49.765H479.985V53.23H441.015V49.765ZM450.87 47.02H454.965V55.21H450.87V47.02ZM465.81 47.02H469.995V55.21H465.81V47.02ZM449.61 63.355V65.74H471.435V63.355H449.61ZM449.61 58.45V60.835H471.435V58.45H449.61ZM445.515 55.84H475.71V68.35H445.515V55.84ZM485.295 74.65H525.705V78.115H485.295V74.65ZM493.305 58.045H520.89V60.925H493.305V58.045ZM493.305 63.445H521.025V66.37H493.305V63.445ZM492.54 52.15H522.915V55.57H492.54V52.15ZM504.285 54.22H508.38V70.195H504.285V54.22ZM503.25 71.32H507.48V88.78H503.25V71.32ZM502.665 76L505.905 77.62C501.36 82.255 493.485 86.395 486.78 88.42C486.15 87.34 484.935 85.765 483.99 84.865C490.74 83.29 498.615 79.78 502.665 76ZM508.2 75.91C512.16 79.645 519.945 83.065 526.695 84.64C525.795 85.495 524.58 87.07 523.995 88.105C517.245 86.17 509.46 82.12 504.915 77.575L508.2 75.91ZM506.445 47.02L511.215 47.65C509.91 50.17 508.38 52.69 507.21 54.4L503.43 53.635C504.555 51.79 505.815 49 506.445 47.02ZM494.79 46.93L499.2 47.785C496.41 52.87 492.54 58.225 487.095 62.68C486.42 61.735 484.98 60.43 484.035 59.845C489.075 56.02 492.765 50.98 494.79 46.93ZM490.605 54.4H494.655V68.98H524.49V72.265H490.605V54.4Z" fill="#00C0DD"/>
<path d="M193.959 143.55C191.959 143.55 190.343 143.383 189.109 143.05C187.909 142.717 186.976 142.317 186.309 141.85C185.643 141.417 185.126 141.067 184.759 140.8C184.359 140.433 184.159 140.2 184.159 140.1C184.159 140.067 184.193 140.05 184.259 140.05C184.393 140.05 184.543 140.083 184.709 140.15C184.909 140.183 185.059 140.233 185.159 140.3C186.326 140.7 187.326 140.917 188.159 140.95C189.026 140.95 189.909 140.95 190.809 140.95C191.909 140.95 193.243 140.85 194.809 140.65C196.376 140.45 198.009 140.117 199.709 139.65C201.443 139.183 203.043 138.533 204.509 137.7C206.476 136.6 207.976 135.3 209.009 133.8C210.076 132.3 210.609 130.867 210.609 129.5C210.609 128.033 209.959 126.783 208.659 125.75C207.359 124.717 205.309 124.2 202.509 124.2C202.243 124.2 201.959 124.2 201.659 124.2C201.359 124.2 201.043 124.217 200.709 124.25C199.376 124.35 197.943 124.6 196.409 125C194.909 125.367 193.543 125.85 192.309 126.45C191.109 127.017 190.259 127.667 189.759 128.4C188.926 129.6 188.243 130.667 187.709 131.6C187.176 132.5 186.709 133.35 186.309 134.15C185.909 134.95 185.459 135.8 184.959 136.7C184.793 137.167 184.509 137.4 184.109 137.4C183.909 137.4 183.809 137.267 183.809 137C183.809 136.833 183.826 136.7 183.859 136.6C184.059 135.833 184.526 134.767 185.259 133.4C186.026 132.033 186.959 130.5 188.059 128.8C189.159 127.1 190.309 125.4 191.509 123.7C192.743 122 193.909 120.433 195.009 119C196.109 117.567 197.043 116.417 197.809 115.55C198.576 114.65 199.059 114.2 199.259 114.2C199.459 114.2 199.626 114.3 199.759 114.5C199.893 114.7 199.943 114.883 199.909 115.05C199.909 115.05 199.693 115.317 199.259 115.85C198.826 116.383 198.276 117.067 197.609 117.9C196.976 118.733 196.293 119.6 195.559 120.5C194.859 121.4 194.226 122.217 193.659 122.95C193.093 123.65 192.676 124.167 192.409 124.5C195.376 124 198.343 123.4 201.309 122.7C204.309 122 207.159 120.95 209.859 119.55C211.526 118.683 212.826 117.75 213.759 116.75C214.726 115.717 215.209 114.783 215.209 113.95C215.209 113.083 214.659 112.367 213.559 111.8C212.459 111.2 210.676 110.9 208.209 110.9C207.209 110.9 205.976 111.017 204.509 111.25C203.043 111.483 201.459 111.8 199.759 112.2C198.093 112.6 196.426 113.083 194.759 113.65C193.126 114.183 191.626 114.767 190.259 115.4C188.926 116.033 187.859 116.683 187.059 117.35C186.493 117.783 186.309 118.167 186.509 118.5C186.576 118.6 186.609 118.7 186.609 118.8C186.609 118.867 186.559 118.9 186.459 118.9C186.359 118.867 186.259 118.817 186.159 118.75C185.626 118.417 185.226 117.983 184.959 117.45C184.693 116.917 184.559 116.433 184.559 116C184.559 115.833 184.576 115.683 184.609 115.55C184.676 115.417 184.726 115.3 184.759 115.2C185.393 114.267 186.409 113.4 187.809 112.6C189.209 111.8 190.793 111.083 192.559 110.45C194.359 109.783 196.193 109.217 198.059 108.75C199.926 108.25 201.659 107.883 203.259 107.65C204.859 107.383 206.159 107.25 207.159 107.25C210.659 107.25 213.343 107.733 215.209 108.7C217.109 109.633 218.059 110.833 218.059 112.3C218.059 113.5 217.409 114.8 216.109 116.2C214.809 117.6 212.793 118.983 210.059 120.35C208.726 121.05 207.293 121.65 205.759 122.15C204.226 122.65 202.693 123.083 201.159 123.45C201.793 123.383 202.393 123.333 202.959 123.3C203.559 123.267 204.126 123.25 204.659 123.25C208.359 123.25 211.043 123.867 212.709 125.1C214.376 126.3 215.209 127.783 215.209 129.55C215.209 130.817 214.809 132.167 214.009 133.6C213.209 135 212.076 136.367 210.609 137.7C209.176 139 207.443 140.15 205.409 141.15C203.976 141.85 202.526 142.367 201.059 142.7C199.593 143.033 198.243 143.25 197.009 143.35C195.776 143.483 194.759 143.55 193.959 143.55ZM234.938 142.95C234.505 142.783 234.072 142.483 233.638 142.05C233.238 141.617 233.038 140.867 233.038 139.8C233.038 138.9 233.188 137.967 233.488 137C233.788 136 234.172 135.017 234.638 134.05C233.772 135.15 232.822 136.233 231.788 137.3C230.788 138.367 229.772 139.25 228.738 139.95C227.738 140.617 226.805 140.95 225.938 140.95C225.205 140.95 224.588 140.75 224.088 140.35C223.622 139.95 223.388 139.333 223.388 138.5C223.388 137.9 223.505 137.25 223.738 136.55C223.972 135.85 224.388 135.067 224.988 134.2C225.588 133.333 226.238 132.483 226.938 131.65C227.672 130.783 228.305 130.05 228.838 129.45C229.205 129.017 229.388 128.667 229.388 128.4C229.388 128.067 229.205 127.9 228.838 127.9C228.438 127.9 227.872 128.167 227.138 128.7C226.372 129.267 225.555 129.967 224.688 130.8C223.822 131.6 223.005 132.383 222.238 133.15C221.472 133.883 220.822 134.467 220.288 134.9C220.188 135 220.088 135.05 219.988 135.05C219.822 135.05 219.738 134.95 219.738 134.75C219.738 134.583 219.888 134.367 220.188 134.1C221.655 132.833 222.872 131.683 223.838 130.65C224.805 129.583 225.755 128.683 226.688 127.95C227.188 127.55 227.705 127.267 228.238 127.1C228.772 126.9 229.272 126.8 229.738 126.8C230.538 126.8 231.205 127.033 231.738 127.5C232.272 127.967 232.538 128.617 232.538 129.45C232.538 130.083 232.372 130.75 232.038 131.45C231.672 132.283 231.172 133.117 230.538 133.95C229.938 134.75 229.355 135.533 228.788 136.3C228.355 136.933 228.038 137.45 227.838 137.85C227.638 138.25 227.538 138.55 227.538 138.75C227.538 139.017 227.672 139.15 227.938 139.15C228.205 139.15 228.588 139 229.088 138.7C229.588 138.4 230.105 138.017 230.638 137.55C231.005 137.217 231.322 136.917 231.588 136.65C231.888 136.35 232.105 136.133 232.238 136C233.005 135.2 233.772 134.35 234.538 133.45C235.305 132.517 235.972 131.667 236.538 130.9C236.972 130.333 237.305 129.9 237.538 129.6C237.805 129.3 238.088 128.983 238.388 128.65C238.955 128.017 239.555 127.683 240.188 127.65C240.555 127.65 240.972 127.733 241.438 127.9C241.938 128.033 242.422 128.317 242.888 128.75C242.555 129.217 242.055 129.867 241.388 130.7C240.755 131.5 240.055 132.4 239.288 133.4C238.555 134.367 237.838 135.367 237.138 136.4C236.472 137.433 235.922 138.4 235.488 139.3C235.055 140.2 234.838 140.983 234.838 141.65C234.838 142.117 234.972 142.483 235.238 142.75C235.372 142.883 235.372 142.95 235.238 142.95C235.105 142.983 235.005 142.983 234.938 142.95ZM259.088 125.7C258.621 125.7 258.271 125.55 258.038 125.25C257.804 124.95 257.688 124.633 257.688 124.3C257.688 123.633 258.004 122.983 258.638 122.35C259.271 121.683 259.938 121.35 260.638 121.35C261.104 121.35 261.454 121.5 261.688 121.8C261.921 122.1 262.038 122.417 262.038 122.75C262.038 123.45 261.721 124.117 261.088 124.75C260.488 125.383 259.821 125.7 259.088 125.7ZM251.438 141.05C250.071 141.05 249.138 140.767 248.638 140.2C248.171 139.6 247.938 138.933 247.938 138.2C247.938 137.6 248.038 137.033 248.238 136.5C248.438 135.933 248.604 135.533 248.738 135.3C248.938 134.967 249.204 134.583 249.538 134.15C249.904 133.717 250.304 133.25 250.738 132.75C250.071 133.317 249.438 133.867 248.838 134.4C248.271 134.933 247.804 135.333 247.437 135.6C247.337 135.7 247.237 135.75 247.137 135.75C247.004 135.75 246.937 135.667 246.937 135.5C246.937 135.233 247.121 134.967 247.487 134.7C248.354 133.967 249.188 133.167 249.988 132.3C250.821 131.433 251.604 130.633 252.338 129.9C253.071 129.133 253.721 128.6 254.288 128.3C254.888 127.967 255.371 127.75 255.738 127.65C256.104 127.55 256.404 127.5 256.638 127.5C257.004 127.5 257.271 127.567 257.438 127.7C257.604 127.8 257.638 127.917 257.538 128.05C256.971 128.617 256.404 129.35 255.838 130.25C255.304 131.117 254.804 132.033 254.338 133C253.871 133.967 253.488 134.883 253.188 135.75C252.921 136.617 252.788 137.35 252.788 137.95C252.788 138.783 253.121 139.2 253.788 139.2C254.421 139.2 255.238 138.917 256.238 138.35C257.271 137.75 258.338 137 259.438 136.1C260.571 135.2 261.621 134.317 262.588 133.45C262.721 133.317 262.838 133.25 262.938 133.25C263.104 133.25 263.188 133.333 263.188 133.5C263.221 133.667 263.188 133.783 263.088 133.85C261.988 134.883 260.738 135.967 259.338 137.1C257.971 138.2 256.588 139.133 255.188 139.9C253.821 140.667 252.571 141.05 251.438 141.05ZM271.307 141.25C269.974 141.25 269.04 140.933 268.507 140.3C267.974 139.633 267.707 138.867 267.707 138C267.707 137.167 267.857 136.283 268.157 135.35C268.49 134.417 268.857 133.533 269.257 132.7C268.824 133.167 268.407 133.6 268.007 134C267.607 134.367 267.274 134.667 267.007 134.9C266.874 135 266.74 135.05 266.607 135.05C266.44 135.05 266.357 134.967 266.357 134.8C266.357 134.633 266.457 134.483 266.657 134.35C267.357 133.75 268.174 132.933 269.107 131.9C270.04 130.867 270.907 129.817 271.707 128.75C272.374 127.883 273.174 126.8 274.107 125.5C275.04 124.2 275.99 122.833 276.957 121.4C277.924 119.933 278.757 118.6 279.457 117.4C279.557 117.2 279.657 116.95 279.757 116.65C279.89 116.35 279.957 116.083 279.957 115.85C279.957 115.517 279.824 115.35 279.557 115.35C279.49 115.35 279.29 115.417 278.957 115.55C278.657 115.683 278.357 115.817 278.057 115.95C277.757 116.083 277.574 116.15 277.507 116.15C277.24 116.15 277.257 116 277.557 115.7C278.09 115.3 278.757 114.917 279.557 114.55C280.39 114.15 281.24 113.817 282.107 113.55C282.974 113.283 283.707 113.15 284.307 113.15C285.707 113.15 286.407 113.6 286.407 114.5C286.407 114.967 286.19 115.583 285.757 116.35C285.39 116.95 284.857 117.667 284.157 118.5C283.457 119.3 282.674 120.167 281.807 121.1C280.974 122 280.157 122.9 279.357 123.8C278.557 124.667 277.89 125.433 277.357 126.1C277.224 126.267 276.89 126.7 276.357 127.4C275.857 128.1 275.274 128.95 274.607 129.95C273.974 130.917 273.324 131.95 272.657 133.05C272.024 134.117 271.49 135.15 271.057 136.15C270.657 137.117 270.457 137.933 270.457 138.6C270.457 139.5 270.89 139.95 271.757 139.95C272.324 139.95 273.04 139.783 273.907 139.45C274.74 139.15 275.607 138.7 276.507 138.1C277.44 137.467 278.34 136.8 279.207 136.1C280.107 135.4 280.89 134.733 281.557 134.1C282.257 133.467 282.774 132.983 283.107 132.65C283.307 132.45 283.474 132.35 283.607 132.35C283.74 132.35 283.807 132.433 283.807 132.6C283.807 132.767 283.724 132.933 283.557 133.1C283.024 133.667 282.29 134.4 281.357 135.3C280.457 136.2 279.44 137.117 278.307 138.05C277.207 138.95 276.057 139.717 274.857 140.35C273.657 140.95 272.474 141.25 271.307 141.25ZM300.504 145.4C299.971 144.933 299.571 144.333 299.304 143.6C299.071 142.9 298.954 142.1 298.954 141.2C298.954 140.367 299.038 139.483 299.204 138.55C299.404 137.617 299.654 136.633 299.954 135.6C299.321 136.4 298.604 137.217 297.804 138.05C297.038 138.883 296.304 139.6 295.604 140.2C294.204 141.333 292.688 141.9 291.054 141.9C289.821 141.9 288.771 141.517 287.904 140.75C287.038 139.95 286.604 138.717 286.604 137.05C286.604 136.617 286.638 136.2 286.704 135.8C286.804 135.4 286.921 135 287.054 134.6C286.854 134.767 286.654 134.933 286.454 135.1C286.288 135.267 286.121 135.417 285.954 135.55C285.821 135.65 285.688 135.7 285.554 135.7C285.388 135.7 285.304 135.617 285.304 135.45C285.304 135.25 285.471 135.017 285.804 134.75C286.238 134.383 286.721 133.883 287.254 133.25C287.821 132.617 288.438 131.933 289.104 131.2C290.271 129.9 291.688 128.85 293.354 128.05C295.054 127.25 296.721 126.85 298.354 126.85C299.754 126.85 300.771 127.1 301.404 127.6C302.071 128.1 302.404 128.7 302.404 129.4C303.238 127.633 304.104 125.95 305.004 124.35C305.938 122.717 306.804 121.283 307.604 120.05C308.438 118.817 309.121 117.9 309.654 117.3C310.021 116.867 310.471 116.55 311.004 116.35C311.571 116.15 312.138 116.05 312.704 116.05C313.271 116.05 313.821 116.133 314.354 116.3C314.888 116.467 315.354 116.733 315.754 117.1C315.421 117.3 314.888 117.783 314.154 118.55C313.454 119.283 312.638 120.2 311.704 121.3C310.804 122.4 309.854 123.583 308.854 124.85C307.888 126.117 306.971 127.383 306.104 128.65C305.071 130.15 304.088 131.767 303.154 133.5C302.254 135.233 301.521 136.917 300.954 138.55C300.388 140.15 300.104 141.567 300.104 142.8C300.104 143.8 300.321 144.567 300.754 145.1C300.854 145.233 300.854 145.317 300.754 145.35C300.654 145.417 300.571 145.433 300.504 145.4ZM292.604 140.2C293.204 140.2 294.004 139.9 295.004 139.3C296.004 138.667 297.238 137.6 298.704 136.1C299.171 135.633 299.538 135.233 299.804 134.9C300.104 134.533 300.354 134.183 300.554 133.85C300.721 133.383 300.888 132.933 301.054 132.5C301.221 132.067 301.404 131.633 301.604 131.2C301.404 131.333 301.254 131.4 301.154 131.4C300.888 131.4 300.754 131.25 300.754 130.95C300.754 130.817 300.804 130.65 300.904 130.45C301.238 129.883 301.404 129.383 301.404 128.95C301.404 128.25 301.004 127.9 300.204 127.9C299.771 127.9 299.188 128.033 298.454 128.3C297.621 128.633 296.754 129.15 295.854 129.85C294.988 130.517 294.171 131.317 293.404 132.25C292.671 133.15 292.071 134.083 291.604 135.05C291.171 136.017 290.954 136.933 290.954 137.8C290.954 138.433 291.071 139 291.304 139.5C291.571 139.967 292.004 140.2 292.604 140.2ZM322.867 125.7C322.4 125.7 322.05 125.55 321.817 125.25C321.583 124.95 321.467 124.633 321.467 124.3C321.467 123.633 321.783 122.983 322.417 122.35C323.05 121.683 323.717 121.35 324.417 121.35C324.883 121.35 325.233 121.5 325.467 121.8C325.7 122.1 325.817 122.417 325.817 122.75C325.817 123.45 325.5 124.117 324.867 124.75C324.267 125.383 323.6 125.7 322.867 125.7ZM315.217 141.05C313.85 141.05 312.917 140.767 312.417 140.2C311.95 139.6 311.717 138.933 311.717 138.2C311.717 137.6 311.817 137.033 312.017 136.5C312.217 135.933 312.383 135.533 312.517 135.3C312.717 134.967 312.983 134.583 313.317 134.15C313.683 133.717 314.083 133.25 314.517 132.75C313.85 133.317 313.217 133.867 312.617 134.4C312.05 134.933 311.583 135.333 311.217 135.6C311.117 135.7 311.017 135.75 310.917 135.75C310.783 135.75 310.717 135.667 310.717 135.5C310.717 135.233 310.9 134.967 311.267 134.7C312.133 133.967 312.967 133.167 313.767 132.3C314.6 131.433 315.383 130.633 316.117 129.9C316.85 129.133 317.5 128.6 318.067 128.3C318.667 127.967 319.15 127.75 319.517 127.65C319.883 127.55 320.183 127.5 320.417 127.5C320.783 127.5 321.05 127.567 321.217 127.7C321.383 127.8 321.417 127.917 321.317 128.05C320.75 128.617 320.183 129.35 319.617 130.25C319.083 131.117 318.583 132.033 318.117 133C317.65 133.967 317.267 134.883 316.967 135.75C316.7 136.617 316.567 137.35 316.567 137.95C316.567 138.783 316.9 139.2 317.567 139.2C318.2 139.2 319.017 138.917 320.017 138.35C321.05 137.75 322.117 137 323.217 136.1C324.35 135.2 325.4 134.317 326.367 133.45C326.5 133.317 326.617 133.25 326.717 133.25C326.883 133.25 326.967 133.333 326.967 133.5C327 133.667 326.967 133.783 326.867 133.85C325.767 134.883 324.517 135.967 323.117 137.1C321.75 138.2 320.367 139.133 318.967 139.9C317.6 140.667 316.35 141.05 315.217 141.05ZM330.236 141.25C329.903 141.25 329.503 141.167 329.036 141C328.57 140.867 328.103 140.6 327.636 140.2C328.003 139.7 328.536 139.033 329.236 138.2C329.903 137.333 330.62 136.383 331.386 135.35C332.153 134.317 332.87 133.283 333.536 132.25C333.003 132.783 332.42 133.35 331.786 133.95C331.153 134.55 330.52 135.1 329.886 135.6C329.753 135.733 329.603 135.8 329.436 135.8C329.303 135.8 329.236 135.733 329.236 135.6C329.236 135.433 329.37 135.233 329.636 135C330.57 134.167 331.603 133.217 332.736 132.15C333.903 131.05 334.753 129.933 335.286 128.8C335.453 128.4 335.536 128.033 335.536 127.7C335.536 127.267 335.453 127 335.286 126.9C335.153 126.8 335.086 126.667 335.086 126.5C335.086 126.2 335.236 126.05 335.536 126.05C335.703 126.05 335.836 126.083 335.936 126.15C336.303 126.317 336.653 126.633 336.986 127.1C337.32 127.567 337.486 128.267 337.486 129.2C337.486 129.733 337.42 130.35 337.286 131.05C337.153 131.717 336.92 132.483 336.586 133.35C337.086 132.683 337.586 132.033 338.086 131.4C338.62 130.767 339.103 130.2 339.536 129.7C340.436 128.667 341.336 127.933 342.236 127.5C343.17 127.033 344.003 126.8 344.736 126.8C345.603 126.8 346.303 127.05 346.836 127.55C347.37 128.05 347.636 128.7 347.636 129.5C347.636 130.133 347.47 130.783 347.136 131.45C347.036 131.717 346.803 132.133 346.436 132.7C346.07 133.233 345.67 133.817 345.236 134.45C344.803 135.083 344.403 135.65 344.036 136.15C343.603 136.683 343.303 137.15 343.136 137.55C342.97 137.917 342.886 138.217 342.886 138.45C342.886 138.783 343.07 138.95 343.436 138.95C343.903 138.95 344.553 138.7 345.386 138.2C345.886 137.9 346.453 137.5 347.086 137C347.753 136.467 348.403 135.933 349.036 135.4C349.703 134.833 350.236 134.367 350.636 134C350.77 133.867 350.886 133.8 350.986 133.8C351.12 133.8 351.186 133.883 351.186 134.05C351.186 134.25 351.103 134.433 350.936 134.6C349.936 135.533 348.77 136.55 347.436 137.65C346.136 138.75 344.853 139.6 343.586 140.2C342.553 140.7 341.603 140.95 340.736 140.95C340.003 140.95 339.42 140.767 338.986 140.4C338.553 140 338.336 139.433 338.336 138.7C338.336 138.167 338.47 137.533 338.736 136.8C339.07 135.9 339.536 135 340.136 134.1C340.77 133.2 341.42 132.35 342.086 131.55C342.786 130.717 343.386 130.017 343.886 129.45C344.32 128.983 344.536 128.583 344.536 128.25C344.536 127.95 344.336 127.8 343.936 127.8C343.536 127.8 342.936 128.033 342.136 128.5C341.37 128.933 340.503 129.65 339.536 130.65C338.17 132.083 336.97 133.633 335.936 135.3C334.903 136.967 333.72 138.533 332.386 140C331.653 140.833 330.936 141.25 330.236 141.25ZM350.909 154.35C348.876 154.35 347.193 154.117 345.859 153.65C344.526 153.183 343.459 152.55 342.659 151.75C342.126 151.183 341.626 150.433 341.159 149.5C340.693 148.6 340.459 147.833 340.459 147.2C340.459 146.967 340.509 146.85 340.609 146.85C340.843 146.85 340.993 146.983 341.059 147.25C341.059 147.35 341.176 147.733 341.409 148.4C341.609 149.067 341.993 149.8 342.559 150.6C343.126 151.4 343.959 152.1 345.059 152.7C346.159 153.3 347.593 153.6 349.359 153.6C351.459 153.6 353.343 153.1 355.009 152.1C356.676 151.133 358.159 149.85 359.459 148.25C360.793 146.683 362.009 144.967 363.109 143.1C364.209 141.233 365.259 139.4 366.259 137.6C367.259 135.8 368.276 134.217 369.309 132.85C368.876 133.317 368.326 133.9 367.659 134.6C367.026 135.267 366.343 135.95 365.609 136.65C364.876 137.35 364.176 137.983 363.509 138.55C362.843 139.117 362.293 139.533 361.859 139.8C361.126 140.233 360.426 140.55 359.759 140.75C359.126 140.95 358.543 141.05 358.009 141.05C356.976 141.05 356.176 140.733 355.609 140.1C355.043 139.433 354.759 138.583 354.759 137.55C354.759 136.583 355.009 135.517 355.509 134.35C356.043 133.183 356.876 132 358.009 130.8C359.176 129.533 360.626 128.517 362.359 127.75C364.093 126.95 365.743 126.55 367.309 126.55C367.876 126.55 368.426 126.617 368.959 126.75C369.493 126.85 369.976 127.033 370.409 127.3C371.009 127.667 371.443 128.017 371.709 128.35C372.009 128.65 372.226 129.017 372.359 129.45C372.559 129.45 372.876 129.55 373.309 129.75C373.743 129.917 374.143 130.133 374.509 130.4C374.876 130.633 375.059 130.883 375.059 131.15C375.059 131.283 374.926 131.433 374.659 131.6C373.993 131.933 373.243 132.733 372.409 134C371.576 135.233 370.643 136.717 369.609 138.45C368.609 140.15 367.476 141.917 366.209 143.75C364.976 145.617 363.593 147.35 362.059 148.95C360.526 150.55 358.826 151.85 356.959 152.85C355.126 153.85 353.109 154.35 350.909 154.35ZM359.409 139.75C360.076 139.75 360.893 139.417 361.859 138.75C362.593 138.25 363.393 137.633 364.259 136.9C365.126 136.133 365.976 135.333 366.809 134.5C367.643 133.667 368.359 132.9 368.959 132.2C370.059 130.933 370.609 129.9 370.609 129.1C370.609 128.433 370.209 128.1 369.409 128.1C368.609 128.1 367.509 128.483 366.109 129.25C365.309 129.683 364.459 130.3 363.559 131.1C362.659 131.9 361.809 132.767 361.009 133.7C360.243 134.633 359.626 135.5 359.159 136.3C358.626 137.267 358.359 138.05 358.359 138.65C358.359 139.383 358.709 139.75 359.409 139.75ZM413.6 142.95C412 142.95 410.416 142.75 408.85 142.35C407.283 141.983 405.85 141.383 404.55 140.55C403.25 139.717 402.216 138.65 401.45 137.35C400.683 136.05 400.3 134.483 400.3 132.65C400.3 130.917 400.65 129.25 401.35 127.65C402.05 126.05 402.95 124.55 404.05 123.15C405.183 121.75 406.35 120.5 407.55 119.4C409.25 117.867 411.183 116.383 413.35 114.95C415.516 113.517 417.816 112.233 420.25 111.1C422.716 109.967 425.2 109.067 427.7 108.4C430.2 107.733 432.6 107.4 434.9 107.4C435.9 107.4 436.983 107.55 438.15 107.85C439.35 108.15 440.366 108.65 441.2 109.35C442.066 110.05 442.5 111.033 442.5 112.3C442.5 113.433 442.116 114.55 441.35 115.65C440.583 116.75 439.566 117.783 438.3 118.75C437.033 119.717 435.633 120.617 434.1 121.45C432.566 122.25 431 122.967 429.4 123.6C427.833 124.2 426.35 124.683 424.95 125.05C423.55 125.417 422.366 125.65 421.4 125.75C421.166 125.783 420.933 125.8 420.7 125.8C420.466 125.8 420.233 125.8 420 125.8C419.8 125.8 419.383 125.783 418.75 125.75C418.116 125.683 417.516 125.567 416.95 125.4C416.383 125.233 416.1 124.983 416.1 124.65C416.1 124.483 416.2 124.4 416.4 124.4C416.533 124.4 416.7 124.433 416.9 124.5C417.1 124.567 417.35 124.6 417.65 124.6C418.45 124.6 419.483 124.4 420.75 124C422.016 123.6 423.383 123.067 424.85 122.4C426.35 121.7 427.833 120.917 429.3 120.05C430.766 119.183 432.116 118.267 433.35 117.3C434.583 116.333 435.566 115.367 436.3 114.4C437.033 113.433 437.4 112.517 437.4 111.65C437.4 110.85 437.116 110.267 436.55 109.9C435.983 109.5 435.316 109.233 434.55 109.1C433.783 108.967 433.116 108.9 432.55 108.9C430.45 108.9 428.283 109.217 426.05 109.85C423.85 110.483 421.666 111.35 419.5 112.45C417.366 113.517 415.333 114.717 413.4 116.05C411.5 117.383 409.8 118.75 408.3 120.15C407.266 121.117 406.233 122.233 405.2 123.5C404.2 124.733 403.366 126.067 402.7 127.5C402.033 128.9 401.7 130.35 401.7 131.85C401.7 133.517 402.1 134.917 402.9 136.05C403.7 137.183 404.733 138.1 406 138.8C407.3 139.467 408.7 139.95 410.2 140.25C411.7 140.55 413.133 140.7 414.5 140.7C415.366 140.7 416.233 140.667 417.1 140.6C417.966 140.5 418.816 140.383 419.65 140.25C421.883 139.85 423.916 139.367 425.75 138.8C427.616 138.233 429.4 137.5 431.1 136.6C432.8 135.7 434.533 134.533 436.3 133.1C436.433 133.033 436.516 133 436.55 133C436.716 133 436.8 133.1 436.8 133.3C436.8 133.4 436.733 133.55 436.6 133.75C435.3 135.15 433.716 136.417 431.85 137.55C430.016 138.683 428.05 139.65 425.95 140.45C423.85 141.25 421.733 141.867 419.6 142.3C417.466 142.733 415.466 142.95 413.6 142.95ZM442.787 141.05C441.754 141.05 440.954 140.733 440.387 140.1C439.82 139.433 439.537 138.583 439.537 137.55C439.537 136.583 439.787 135.517 440.287 134.35C440.82 133.183 441.654 132 442.787 130.8C443.954 129.533 445.404 128.517 447.137 127.75C448.87 126.95 450.52 126.55 452.087 126.55C453.354 126.55 454.437 126.833 455.337 127.4C456.237 127.933 456.837 128.617 457.137 129.45C457.504 129.45 457.954 129.55 458.487 129.75C459.054 129.95 459.337 130.317 459.337 130.85C459.337 131.217 459.154 131.633 458.787 132.1C458.554 132.433 458.137 132.933 457.537 133.6C456.97 134.267 456.437 134.983 455.937 135.75C455.537 136.35 455.22 136.917 454.987 137.45C454.754 137.95 454.637 138.383 454.637 138.75C454.637 139.25 454.887 139.5 455.387 139.5C455.954 139.5 456.804 139.183 457.937 138.55C459.17 137.85 460.354 137.05 461.487 136.15C462.62 135.25 463.504 134.533 464.137 134C464.304 133.867 464.42 133.8 464.487 133.8C464.62 133.8 464.687 133.883 464.687 134.05C464.687 134.25 464.604 134.433 464.437 134.6C464.137 134.867 463.554 135.367 462.687 136.1C461.82 136.833 460.82 137.6 459.687 138.4C458.587 139.2 457.504 139.85 456.437 140.35C455.904 140.583 455.404 140.767 454.937 140.9C454.504 141 454.104 141.05 453.737 141.05C452.837 141.05 452.154 140.8 451.687 140.3C451.22 139.767 450.987 139.083 450.987 138.25C450.987 137.917 451.037 137.567 451.137 137.2C451.237 136.833 451.354 136.467 451.487 136.1L451.837 135.25C450.97 136.317 450.104 137.217 449.237 137.95C448.37 138.65 447.504 139.267 446.637 139.8C445.904 140.233 445.204 140.55 444.537 140.75C443.904 140.95 443.32 141.05 442.787 141.05ZM444.337 139.75C444.937 139.75 445.804 139.4 446.937 138.7C448.07 137.967 449.387 136.85 450.887 135.35C451.087 135.15 451.454 134.8 451.987 134.3C452.554 133.767 453.154 133.183 453.787 132.55C454.42 131.883 454.954 131.233 455.387 130.6C455.854 129.933 456.087 129.383 456.087 128.95C456.087 128.317 455.537 128 454.437 128C453.47 128 452.304 128.383 450.937 129.15C449.604 129.883 448.32 130.983 447.087 132.45C445.82 133.95 444.887 135.25 444.287 136.35C443.72 137.417 443.437 138.233 443.437 138.8C443.437 139.433 443.737 139.75 444.337 139.75ZM471.666 141.55C470.333 141.55 469.166 141.3 468.166 140.8C467.133 140.267 466.383 139.3 465.916 137.9C465.883 137.767 465.933 137.683 466.066 137.65C466.166 137.617 466.233 137.683 466.266 137.85C466.6 138.583 467.033 139.1 467.566 139.4C468.1 139.7 468.683 139.85 469.316 139.85C470.383 139.85 471.316 139.533 472.116 138.9C472.95 138.267 473.683 137.467 474.316 136.5C474.983 135.533 475.566 134.55 476.066 133.55C476.6 132.517 477.1 131.633 477.566 130.9C478.3 129.667 479.166 128.55 480.166 127.55C481.2 126.55 482.133 125.933 482.966 125.7C482.766 125.6 482.516 125.55 482.216 125.55C481.383 125.55 480.466 125.8 479.466 126.3C478.466 126.8 477.45 127.45 476.416 128.25C475.416 129.05 474.433 129.9 473.466 130.8C472.533 131.667 471.666 132.483 470.866 133.25C470.1 133.983 469.483 134.567 469.016 135C468.75 135.233 468.55 135.35 468.416 135.35C468.283 135.35 468.216 135.283 468.216 135.15C468.216 134.95 468.3 134.767 468.466 134.6C469.466 133.733 470.5 132.767 471.566 131.7C472.633 130.6 473.716 129.55 474.816 128.55C475.916 127.517 477.033 126.667 478.166 126C479.3 125.333 480.45 125 481.616 125C481.75 125 481.866 125 481.966 125C482.1 125 482.233 125.017 482.366 125.05C482.733 125.083 483.066 125.183 483.366 125.35C483.7 125.517 483.8 125.633 483.666 125.7C482.9 126.033 482.3 126.7 481.866 127.7C481.433 128.7 481.033 129.867 480.666 131.2C480.3 132.533 479.85 133.883 479.316 135.25C478.816 136.617 478.083 137.833 477.116 138.9C477.583 138.733 478.316 138.35 479.316 137.75C480.316 137.15 481.416 136.417 482.616 135.55C483.816 134.65 484.933 133.667 485.966 132.6C486.1 132.467 486.233 132.4 486.366 132.4C486.533 132.4 486.616 132.483 486.616 132.65C486.616 132.783 486.55 132.917 486.416 133.05C485.516 133.917 484.516 134.85 483.416 135.85C482.316 136.817 481.116 137.733 479.816 138.6C478.55 139.467 477.233 140.183 475.866 140.75C474.5 141.283 473.1 141.55 471.666 141.55ZM493.998 141.5C492.532 141.5 491.298 141.15 490.298 140.45C489.332 139.717 488.848 138.667 488.848 137.3C488.848 135.833 489.198 134.467 489.898 133.2C490.598 131.933 491.532 130.833 492.698 129.9C493.865 128.933 495.132 128.183 496.498 127.65C497.898 127.117 499.282 126.85 500.648 126.85C502.015 126.85 503.032 127.1 503.698 127.6C504.365 128.067 504.698 128.65 504.698 129.35C504.698 130.017 504.382 130.733 503.748 131.5C503.148 132.233 502.265 132.883 501.098 133.45C500.365 133.783 499.515 134.083 498.548 134.35C497.615 134.583 496.798 134.7 496.098 134.7C495.565 134.7 495.298 134.617 495.298 134.45C495.298 134.317 495.532 134.25 495.998 134.25C496.432 134.25 497.098 134.133 497.998 133.9C498.932 133.633 499.832 133.283 500.698 132.85C501.665 132.317 502.348 131.783 502.748 131.25C503.148 130.717 503.348 130.233 503.348 129.8C503.348 129.4 503.182 129.067 502.848 128.8C502.548 128.533 502.115 128.4 501.548 128.4C501.015 128.4 500.415 128.55 499.748 128.85C498.782 129.283 497.782 130 496.748 131C495.748 131.967 494.915 133.033 494.248 134.2C493.582 135.367 493.248 136.483 493.248 137.55C493.248 138.283 493.448 138.9 493.848 139.4C494.282 139.9 494.915 140.15 495.748 140.15C496.615 140.15 497.615 139.883 498.748 139.35C499.882 138.783 501.032 138.1 502.198 137.3C503.365 136.467 504.448 135.633 505.448 134.8C506.448 133.967 507.248 133.267 507.848 132.7C508.048 132.5 508.198 132.4 508.298 132.4C508.398 132.4 508.448 132.483 508.448 132.65C508.448 132.883 508.348 133.083 508.148 133.25C506.882 134.417 505.498 135.633 503.998 136.9C502.532 138.167 500.948 139.25 499.248 140.15C497.582 141.017 495.832 141.467 493.998 141.5Z" fill="#A17711"/>
</svg>
